<svg height="512pt" viewBox="1 1 511.99998 511.99998" width="512pt" xmlns="http://www.w3.org/2000/svg"><path d="m411.351562 235.394531v49c-21.058593 1.425781-40.59375 8.492188-57.105468 19.699219-16 10.859375-18.042969 33.671875-4.367188 47.34375l16.617188 16.621094 114.597656-29.644532v-133.921874h-38.839844c-17.066406 0-30.902344 13.835937-30.902344 30.902343zm0 0" fill="#596775"/><path d="m442.253906 204.492188c-2.59375 0-5.109375.320312-7.519531.925781v86.636719c0 8.535156-6.917969 15.453124-15.453125 15.453124-30.417969 0-57.464844 14.730469-74.378906 37.425782 1.332031 2.320312 2.980468 4.511718 4.972656 6.503906l16.621094 16.621094c85.972656-22.238282 55.910156-14.460938 114.597656-29.644532v-133.921874zm0 0" fill="#35404a"/><path d="m246.726562 383.40625h-54.082031v-289.660156c0-4.265625 3.457031-7.726563 7.726563-7.726563h38.628906c4.269531 0 7.726562 3.460938 7.726562 7.726563zm0 0" fill="#596775"/><path d="m239 86.019531h-23.179688v243.871094c-7.96875 1.882813-15.738281 4.542969-23.175781 7.960937v45.554688h54.082031c0-12.722656 0-277.074219 0-289.660156 0-4.269532-3.457031-7.726563-7.726562-7.726563zm0 0" fill="#35404a"/><path d="m496.546875 86.019531c-2.066406 0-123.070313 0-124.964844 0-51.320312 0-95.917969 36.519531-106.042969 86.832031l-39.585937 196.722657 30.296875 6.097656 39.585938-196.722656c7.257812-36.074219 38.949218-62.023438 75.746093-62.023438h94.058594v236.941407h30.90625v-236.941407c8.535156 0 15.453125-6.917969 15.453125-15.453125s-6.917969-15.453125-15.453125-15.453125zm0 0" fill="#35404a"/><path d="m481.09375 338.414062h-61.8125c-34.136719 0-61.808594 27.675782-61.808594 61.8125v3.035157h-33.386718c-16.136719-27.378907-45.921876-45.789063-79.933594-45.789063-22.523438 0-43.195313 8.074219-59.277344 21.476563-3.5 2.917969-3.761719 8.203125-.539062 11.425781l59.816406 59.8125v7.15625h260.121094c4.265624 0 7.726562-3.457031 7.726562-7.726562v-80.296876c0-17.070312-13.835938-30.90625-30.90625-30.90625zm0 0" fill="#ffcf5d"/><path d="m220.402344 426.4375 23.75 23.75v7.15625h260.121094c4.265624 0 7.726562-3.457031 7.726562-7.726562v-80.296876c0-17.070312-13.835938-30.90625-30.90625-30.90625v88.023438zm0 0" fill="#ff983b"/><path d="m437.3125 512c-29.824219 0-54.085938-24.261719-54.085938-54.085938 0-29.820312 24.261719-54.082031 54.085938-54.082031 29.820312 0 54.082031 24.261719 54.082031 54.082031 0 29.824219-24.261719 54.085938-54.082031 54.085938zm0 0" fill="#596775"/><path d="m448.367188 404.972656c-6.339844 11.710938-4.566407 26.652344 5.332031 36.550782l-32.777344 32.78125c-9.898437-9.898438-24.84375-11.675782-36.554687-5.332032 5.117187 24.535156 26.910156 43.027344 52.945312 43.027344 29.820312 0 54.082031-24.261719 54.082031-54.085938 0-26.035156-18.488281-47.824218-43.027343-52.941406zm0 0" fill="#35404a"/><path d="m460.488281 457.914062c0 12.804688-10.375 23.179688-23.175781 23.179688-12.804688 0-23.179688-10.375-23.179688-23.179688 0-12.800781 10.375-23.175781 23.179688-23.175781 12.800781 0 23.175781 10.375 23.175781 23.175781zm0 0" fill="#d3cdbf"/><path d="m244.152344 512c-34.082032 0-61.8125-27.726562-61.8125-61.8125 0-34.082031 27.730468-61.808594 61.8125-61.808594 34.082031 0 61.808594 27.726563 61.808594 61.808594 0 34.085938-27.726563 61.8125-61.808594 61.8125zm0 0" fill="#596775"/><path d="m261.222656 390.796875c-6.992187 11.847656-5.398437 27.359375 4.78125 37.539063l-43.707031 43.707031c-10.179687-10.179688-25.691406-11.773438-37.539063-4.785157 7.425782 25.804688 31.234376 44.742188 59.394532 44.742188 34.082031 0 61.808594-27.726562 61.808594-61.8125 0-28.160156-18.933594-51.964844-44.738282-59.390625zm0 0" fill="#35404a"/><path d="m275.058594 450.1875c0 17.070312-13.839844 30.90625-30.90625 30.90625-17.070313 0-30.90625-13.835938-30.90625-30.90625 0-17.066406 13.835937-30.902344 30.90625-30.902344 17.066406 0 30.90625 13.835938 30.90625 30.902344zm0 0" fill="#d3cdbf"/><path d="m161.738281 7.726562v181.3125h-154.011719c-4.265624 0-7.726562 3.457032-7.726562 7.726563 0 4.265625 3.460938 7.726563 7.726562 7.726563h184.917969v-196.765626c0-4.265624-3.460937-7.726562-7.726562-7.726562h-15.453125c-4.269532 0-7.726563 3.460938-7.726563 7.726562zm0 0" fill="#35404a"/></svg>