<svg id="Layer_3" enable-background="new 0 0 64 64" height="512" viewBox="0 0 64 64" width="512" xmlns="http://www.w3.org/2000/svg"><g><path d="m2 2h60v4h-60z" fill="#f7d881"/><path d="m16 6 6 6h20l6-6" fill="#243242"/><path d="m25 16v19h14v-19" fill="#8892a0"/><path d="m25 35 4 6h6l4-6" fill="#c1c8d1"/><path d="m29 41 1 4h4l1-4" fill="#758190"/><g><path d="m31 45h1.999v10h-1.999z" fill="#e7e4dd"/></g><path d="m30 62h-26c-1.105 0-2-.895-2-2 0-1.105.895-2 2-2h26z" fill="#674025"/><path d="m34 62h26c1.105 0 2-.895 2-2 0-1.105-.895-2-2-2h-26z" fill="#674025"/><g><path d="m34.171 51.999h5.657v2.001h-5.657z" fill="#c18e59" transform="matrix(.707 -.707 .707 .707 -26.641 41.697)"/></g><g><path d="m25.999 50.171h1.999v5.657h-1.999z" fill="#c18e59" transform="matrix(.707 -.707 .707 .707 -29.572 34.625)"/></g><path d="m34 16v12c0 1.105-.895 2-2 2-1.105 0-2-.895-2-2v-12" fill="#f7d881"/><g><path d="m30 23h3.999v2h-3.999z" fill="#e39854"/></g><g fill="#534741"><path d="m8.585 6h2.829l-4-4h-2.83z"/><path d="m14.585 6h2.829l-4-4h-2.829z"/><path d="m20.584 6h2.83l-4-4h-2.83z"/><path d="m26.585 6h2.83l-4-4h-2.83z"/><path d="m32.584 6h2.83l-4-4h-2.83z"/><path d="m38.585 6h2.83l-4-4h-2.83z"/><path d="m47.414 6-4-4h-2.829l3.999 4z"/><path d="m50.585 6h2.83l-4-4h-2.83z"/><path d="m56.585 6h2.829l-4-4h-2.829z"/></g><path d="m25 12v4h14v-4" fill="#c1c8d1"/><g><path d="m19 53h3.999v2h-3.999z" fill="#c18e59"/></g><g><path d="m41 53h3.999v2h-3.999z" fill="#c18e59"/></g><g><path d="m31 35h1.999v3h-1.999z" fill="#243242"/></g><path d="m62 .999h-60.001c-.552 0-1 .448-1 1v4c0 .552.448 1 1 1h13.586l5.707 5.707c.188.188.442.292.708.292h2v3 19c0 .206.077.386.183.544l-.016.011 3.905 5.857.958 3.83c.111.445.512.757.971.757h1v9h1.999v-9h1c.459 0 .859-.312.971-.757l.958-3.83 3.905-5.857-.016-.011c.106-.159.183-.339.183-.544v-18.998-3h2c.266 0 .521-.105.708-.292l5.705-5.708h13.586c.552 0 1-.448 1-1v-4c0-.553-.448-1.001-1-1.001zm-45.585 4.001-2-2h3.17l2 2zm-2.83 0h-3.17l-2-2h3.17zm8.83 0-2-2h3.17l2 2zm6 0-2-2h3.17l2 2zm6 0-2-2h3.17l2 2zm6 0-2-2h3.17l2 2zm6 0-2-2h3.17l2 2zm3.999-2.001h3.17l2 2h-3.17zm-47.415 0h2.585l2 2h-4.585zm28.001 22h1.999v3.001c0 .551-.448.999-1.001.999-.551 0-.998-.448-.998-.999zm1.999-1.999h-1.999v-6h1.999zm-.999 7.999c1.653 0 2.999-1.345 2.999-2.999v-11.001h3v17h-11.999v-17h3v11.001c0 1.654 1.346 2.999 3 2.999zm-2.465 9-2.667-4h4.132v2h1.999v-2h4.132l-2.667 4zm1.245 4-.5-2h3.438l-.5 2zm7.219-29h-11.999v-2h11.999zm3.586-4h-19.171l-4-4h27.17zm19.415-5.999h-2.585l-2-2h4.585z"/><path d="m1 60c0 1.654 1.345 2.999 2.998 2.999h26.001c.553 0 1-.447 1-1v-4c0-.553-.447-1-1-1h-26.001c-1.653.001-2.998 1.346-2.998 3.001zm27.999.999h-25.001c-.551 0-.998-.448-.998-.999 0-.552.447-1 .998-1h25.001z"/><path d="m33.292 57.292c-.188.187-.292.442-.292.708v4c0 .553.447 1 1 1h25.999c1.653 0 2.999-1.345 3-3 0-1.654-1.346-3-2.999-3h-26c-.266 0-.521.104-.708.292zm1.708 1.708h24.999c.552 0 1 .448 1 .999s-.448 1-1 1h-24.999z"/><path d="m34.171 51.999h5.657v2.001h-5.657z" transform="matrix(.707 -.707 .707 .707 -26.639 41.686)"/><path d="m25.999 50.171h1.999v5.657h-1.999z" transform="matrix(.707 -.708 .708 .707 -29.578 34.644)"/><path d="m19 53h3.999v2h-3.999z"/><path d="m41 53h3.999v2h-3.999z"/></g></svg>