<svg height="512" viewBox="0 0 60 60" width="512" xmlns="http://www.w3.org/2000/svg"><g id="Page-1" fill="none" fill-rule="evenodd"><g id="046---Elbow-Pipe" fill-rule="nonzero"><path id="Shape" d="m57 38v11h-26v-11c-.007709-4.9673661-4.0326339-8.992291-9-9h-11v-26h11c19.3212846.02094331 34.9790567 15.6787154 35 35z" fill="#7f8e94"/><path id="Shape" d="m22 3h-3c19.3212846.02094331 34.9790567 15.6787154 35 35v11h3v-11c-.0209433-19.3212846-15.6787154-34.97905669-35-35z" fill="#707070"/><rect id="Rectangle-path" fill="#02a9f4" height="30" rx="1" width="10" x="1" y="1"/><path id="Shape" d="m10 1h-3c.55228475 0 1 .44771525 1 1v28c0 .5522847-.44771525 1-1 1h3c.5522847 0 1-.4477153 1-1v-28c0-.55228475-.4477153-1-1-1z" fill="#0377bc"/><rect id="Rectangle-path" fill="#02a9f4" height="10" rx="1" width="30" x="29" y="49"/><path id="Shape" d="m58 49h-3c.5522847 0 1 .4477153 1 1v8c0 .5522847-.4477153 1-1 1h3c.5522847 0 1-.4477153 1-1v-8c0-.5522847-.4477153-1-1-1z" fill="#0377bc"/><path id="Shape" d="m58 48v-10c-.0220445-19.8731127-16.1268873-35.97795548-36-36h-10c0-1.1045695-.8954305-2-2-2h-8c-.53043298 0-1.0391408.21071368-1.41421356.58578644s-.58578644.88378058-.58578644 1.41421356v28c0 1.1045695.8954305 2 2 2h8c1.1045695 0 2-.8954305 2-2h10c4.4162219.0049599 7.9950401 3.5837781 8 8v10c-1.1045695 0-2 .8954305-2 2v8c0 1.1045695.8954305 2 2 2h28c1.1045695 0 2-.8954305 2-2v-8c0-1.1045695-.8954305-2-2-2zm-48-45v27h-8v-28h8zm12 25h-10v-24h10c18.7690002.02094203 33.979058 15.2309998 34 34v10h-24v-10c-.0060624-5.5203344-4.4796656-9.9939376-10-10zm36 30h-28v-8h28z" fill="#000"/><g fill="#f5f5f5"><path id="Shape" d="m44.883 18.107c-.2807118.0000512-.5485195-.1178858-.738-.325-5.6854411-6.218861-13.7189533-9.76746418-22.145-9.782h-1c-.5522847 0-1-.44771525-1-1s.4477153-1 1-1h1c8.9874673.01543029 17.5563339 3.80015509 23.621 10.433.2669112.2925453.3360434.7150389.1762935 1.0773982-.1597498.3623594-.5182831.5963123-.9142935.5966018z"/><path id="Shape" d="m17 8h-2c-.5522847 0-1-.44771525-1-1s.4477153-1 1-1h2c.5522847 0 1 .44771525 1 1s-.4477153 1-1 1z"/></g></g></g></svg>