<?xml version="1.0" encoding="iso-8859-1"?>
<!-- Generator: Adobe Illustrator 19.0.0, SVG Export Plug-In . SVG Version: 6.00 Build 0)  -->
<svg version="1.1" id="Layer_1" xmlns="http://www.w3.org/2000/svg" xmlns:xlink="http://www.w3.org/1999/xlink" x="0px" y="0px"
	 viewBox="0 0 512 512" style="enable-background:new 0 0 512 512;" xml:space="preserve">
<path style="fill:#999999;" d="M320.674,374.568h86.232v107.789H105.095V374.568h86.232l10.779-32.337h107.789L320.674,374.568z
	 M105.095,202.105v118.568h64.674l10.779-32.337h150.905l10.779,32.337h64.674V202.105H105.095z"/>
<path style="fill:#6D6D6D;" d="M320.674,191.326H191.326V29.642h129.347V191.326z"/>
<path style="fill:#999999;" d="M277.558,83.537h-86.232V29.642h86.232V83.537z M277.558,115.874h-86.232v32.337h86.232V115.874z"/>
<path style="fill:#6D6D6D;" d="M450.021,191.326v21.558c0,5.953-4.826,10.779-10.779,10.779h-32.337v97.011h-40.96v-97.011H72.758
	c-5.953,0-10.779-4.826-10.779-10.779v-21.558c0-5.953,4.826-10.779,10.779-10.779h366.484
	C445.195,180.547,450.021,185.373,450.021,191.326z M439.242,460.8h-32.337v-86.232h-40.96V460.8H72.758
	c-5.953,0-10.779,4.826-10.779,10.779v21.558c0,5.953,4.826,10.779,10.779,10.779h366.484c5.953,0,10.779-4.826,10.779-10.779
	v-21.558C450.021,465.626,445.195,460.8,439.242,460.8z"/>
<g>
	<path style="fill:#FFD34E;" d="M145.624,180.547h87.956l-43.116,43.116h-31.475h-53.895h-2.587L145.624,180.547z M334.471,223.663
		h31.475l43.116-43.116h-87.956l-43.116,43.116h2.587H334.471z M102.508,503.916h2.587h53.895h31.475L233.58,460.8h-87.956
		L102.508,503.916z M277.989,503.916h2.587h53.895h31.475l43.116-43.116h-87.956L277.989,503.916z"/>
	<path style="fill:#FFD34E;" d="M363.789,18.863v21.558c0,5.953-4.826,10.779-10.779,10.779h-10.779v21.558
		c0,5.953-4.826,10.779-10.779,10.779h-21.558c-5.953,0-10.779-4.826-10.779-10.779V51.2h-86.232v21.558
		c0,5.953-4.826,10.779-10.779,10.779h-21.558c-5.953,0-10.779-4.826-10.779-10.779V51.2h-10.779
		c-5.953,0-10.779-4.826-10.779-10.779V18.863c0-5.953,4.826-10.779,10.779-10.779H353.01
		C358.964,8.084,363.789,12.91,363.789,18.863z"/>
</g>
<path style="fill:#FFB933;" d="M363.789,29.642v10.779c0,5.953-4.826,10.779-10.779,10.779h-10.779v21.558
	c0,5.953-4.826,10.779-10.779,10.779h-10.779V51.2H212.884v21.558c0,5.953-4.826,10.779-10.779,10.779h-10.779V51.2h-32.337
	c-5.953,0-10.779-4.826-10.779-10.779V29.642H363.789z"/>
<path d="M226.358,83.537c0-4.466,3.618-8.084,8.084-8.084h43.116c4.466,0,8.084,3.618,8.084,8.084c0,4.466-3.618,8.084-8.084,8.084
	h-43.116C229.976,91.621,226.358,88.003,226.358,83.537z M458.105,471.579v21.558c0,10.401-8.463,18.863-18.863,18.863H72.758
	c-10.401,0-18.863-8.463-18.863-18.863v-21.558c0-10.401,8.463-18.863,18.863-18.863h24.253v-78.147
	c0-4.466,3.618-8.084,8.084-8.084H185.5l8.936-26.809c1.101-3.302,4.19-5.527,7.669-5.527h75.453c4.466,0,8.084,3.618,8.084,8.084
	s-3.618,8.084-8.084,8.084h-69.627l-8.936,26.809c-1.101,3.302-4.19,5.527-7.669,5.527h-78.147v70.063h285.642v-70.063h-78.147
	c-3.481,0-6.57-2.226-7.669-5.527l-10.779-32.337c-1.412-4.236,0.876-8.815,5.112-10.226c4.236-1.41,8.814,0.876,10.226,5.112
	l8.936,26.809h80.406c4.466,0,8.084,3.618,8.084,8.084v78.147h24.253C449.643,452.716,458.105,461.178,458.105,471.579z
	 M99.159,495.832l26.947-26.947H72.758c-1.486,0-2.695,1.208-2.695,2.695v21.558c0,1.486,1.208,2.695,2.695,2.695H99.159z
	 M187.116,495.832l26.947-26.947h-65.092l-26.947,26.947H187.116z M275.071,495.832l26.947-26.947h-65.091l-26.947,26.947H275.071z
	 M363.028,495.832l26.947-26.947h-65.092l-26.947,26.947H363.028z M441.937,471.579c0-1.486-1.208-2.695-2.695-2.695h-26.401
	l-26.947,26.947h53.348c1.486,0,2.695-1.208,2.695-2.695V471.579z M458.105,191.326v21.558c0,10.401-8.463,18.863-18.863,18.863
	h-24.253v88.926c0,4.466-3.618,8.084-8.084,8.084h-64.674c-3.481,0-6.57-2.226-7.669-5.527l-8.936-26.809H186.373l-8.936,26.809
	c-1.101,3.302-4.19,5.527-7.669,5.527h-64.674c-4.466,0-8.084-3.618-8.084-8.084V256c0-4.466,3.618-8.084,8.084-8.084
	c4.466,0,8.084,3.618,8.084,8.084v56.589h50.763l8.936-26.809c1.101-3.302,4.19-5.527,7.669-5.527h150.905
	c3.481,0,6.57,2.226,7.669,5.527l8.936,26.809h50.763v-80.842H169.768c-4.466,0-8.084-3.618-8.084-8.084s3.618-8.084,8.084-8.084
	h17.348l26.947-26.947h-65.092l-26.947,26.947h15.407c4.466,0,8.084,3.618,8.084,8.084s-3.618,8.084-8.084,8.084H72.758
	c-10.401,0-18.863-8.463-18.863-18.863v-21.558c0-10.401,8.463-18.863,18.863-18.863h110.484V91.621h-2.695
	c-10.401,0-18.863-8.463-18.863-18.863V59.284h-2.695c-10.401,0-18.863-8.463-18.863-18.863V18.863
	C140.126,8.463,148.589,0,158.989,0h129.347c4.466,0,8.084,3.618,8.084,8.084s-3.618,8.084-8.084,8.084H158.989
	c-1.486,0-2.695,1.208-2.695,2.695v21.558c0,1.486,1.208,2.695,2.695,2.695H353.01c1.486,0,2.695-1.208,2.695-2.695V18.863
	c0-1.486-1.208-2.695-2.695-2.695h-32.337c-4.466,0-8.084-3.618-8.084-8.084S316.208,0,320.674,0h32.337
	c10.401,0,18.863,8.463,18.863,18.863v21.558c0,10.401-8.463,18.863-18.863,18.863h-2.695v13.474
	c0,10.401-8.463,18.863-18.863,18.863h-2.695v80.842h110.484C449.643,172.463,458.105,180.926,458.105,191.326z M126.106,188.632
	H72.758c-1.486,0-2.695,1.208-2.695,2.695v21.558c0,1.486,1.208,2.695,2.695,2.695h26.401L126.106,188.632z M307.2,72.758
	c0,1.486,1.208,2.695,2.695,2.695h21.558c1.486,0,2.695-1.208,2.695-2.695V59.284H307.2V72.758z M202.105,75.453
	c1.486,0,2.695-1.208,2.695-2.695V59.284h-26.947v13.474c0,1.486,1.208,2.695,2.695,2.695H202.105z M312.589,172.463v-16.168
	h-88.926c-4.466,0-8.084-3.618-8.084-8.084c0-4.466,3.618-8.084,8.084-8.084h88.926v-16.168h-88.926
	c-4.466,0-8.084-3.618-8.084-8.084s3.618-8.084,8.084-8.084h88.926V91.621h-2.695c-10.401,0-18.863-8.463-18.863-18.863V59.284
	h-70.063v13.474c0,10.401-8.463,18.863-18.863,18.863h-2.695v80.842H312.589z M275.071,215.579l26.947-26.947h-65.091
	l-26.947,26.947H275.071z M363.028,215.579l26.947-26.947h-65.092l-26.947,26.947H363.028z M441.937,191.326
	c0-1.486-1.208-2.695-2.695-2.695h-26.401l-26.947,26.947h21.011h32.337c1.486,0,2.695-1.208,2.695-2.695V191.326z"/>
<g>
</g>
<g>
</g>
<g>
</g>
<g>
</g>
<g>
</g>
<g>
</g>
<g>
</g>
<g>
</g>
<g>
</g>
<g>
</g>
<g>
</g>
<g>
</g>
<g>
</g>
<g>
</g>
<g>
</g>
</svg>
