<svg height="480pt" viewBox="0 0 480.00048 480" width="480pt" xmlns="http://www.w3.org/2000/svg"><path d="m418.183594 143.671875h-179.589844l13.8125-64h75.59375l16 24.328125h65.625zm0 0" fill="#fab22a"/><path d="m280 104h16v16h-16zm0 0" fill="#f05d46"/><path d="m432 383.648438-207.238281.703124-.234375-176.351562-8.503906-16-.023438-16 223.976562-.703125.023438 16.703125-8.230469 16zm0 0" fill="#dbdbd9"/><path d="m440 192-.023438-16.703125-48 .152344.023438 16.550781-8.230469 16 .230469 175.648438-159.238281.535156v.167968l207.238281-.703124-.230469-175.648438zm0 0" fill="#d1d1cf"/><path d="m200 384h256v48h-256zm0 0" fill="#ffc14d"/><path d="m384 384h72v48h-72zm0 0" fill="#fab22a"/><path d="m240 452c0 11.046875-8.953125 20-20 20s-20-8.953125-20-20 8.953125-20 20-20 20 8.953125 20 20zm0 0" fill="#4398d1"/><path d="m456 452c0 11.046875-8.953125 20-20 20s-20-8.953125-20-20 8.953125-20 20-20 20 8.953125 20 20zm0 0" fill="#4398d1"/><path d="m216 136h224v39.671875h-224zm0 0" fill="#ffc14d"/><path d="m456 240h-24v-16h19.054688l12.945312-25.886719v-46.113281h-24v-16h32c4.417969 0 8 3.582031 8 8v56c.011719 1.238281-.261719 2.460938-.800781 3.578125l-16 32c-1.359375 2.722656-4.152344 4.4375-7.199219 4.421875zm0 0" fill="#dbdbd9"/><g fill="#d1d1cf"><path d="m248 200h184v16h-184zm0 0"/><path d="m248 336h160v16h-160zm0 0"/><path d="m248 296h160v16h-160zm0 0"/></g><path d="m88 424v-32h-32v32h-48v48h128v-48zm0 0" fill="#4398d1"/><path d="m224 256h56c0 17.671875-14.328125 32-32 32h-24zm0 0" fill="#d1d1cf"/><path d="m88 8c-17.671875 0-32 14.328125-32 32v352h32v-344c0-4.417969 3.582031-8 8-8h24v-32zm0 0" fill="#dbdbd9"/><path d="m264 240h-72c-4.417969 0-8-3.582031-8-8v-192c0-17.671875-14.328125-32-32-32h-32v32h24c4.417969 0 8 3.582031 8 8v192c0 17.671875 14.328125 32 32 32h80c8.835938 0 16-7.164062 16-16s-7.164062-16-16-16zm0 0" fill="#4398d1"/><path d="m440 136h16v16h-16zm0 0" fill="#d1d1cf"/><path d="m432 224h16v16h-16zm0 0" fill="#d1d1cf"/><path d="m472 136h-47.28125l-7.269531-33.6875c-.796875-3.695312-4.070313-6.324219-7.847657-6.3125h-61.289062l-13.601562-20.726562c-1.480469-2.25-3.992188-3.601563-6.6875-3.601563h-75.617188c-3.769531 0-7.027344 2.628906-7.820312 6.3125l-12.523438 58.015625h-16.0625c-4.417969 0-8 3.582031-8 8v31.671875.167969.175781 16c0 1.304687.324219 2.589844.9375 3.746094l7.566406 14.238281v6h16v-8c0-1.308594-.320312-2.597656-.9375-3.75l-7.566406-14.25v-6l96.558594-.304688h111.441406v6.402344l-5.113281 9.902344h-178.886719v16h175.785156l.214844 159.671875h-191.320312l-.679688-79.742187-16 .140624.679688 79.617188h-24.679688c-4.417969 0-8 3.582031-8 8v48.3125c0 4.417969 3.582031 8 8 8h2.808594c-1.824219 3.738281-2.785156 7.839844-2.808594 12 0 15.464844 12.535156 28 28 28s28-12.535156 28-28c-.023438-4.160156-.984375-8.261719-2.808594-12h165.601563c-1.820313 3.738281-2.773438 7.839844-2.792969 12 0 15.464844 12.535156 28 28 28s28-12.535156 28-28c-.023438-4.160156-.984375-8.261719-2.808594-12h2.808594c4.417969 0 8-3.582031 8-8v-48.3125c0-4.417969-3.582031-8-8-8h-24l-.183594-135.6875h16.183594c3.046875.015625 5.839844-1.699219 7.199219-4.421875l16-32c.539062-1.117187.8125-2.339844.800781-3.578125v-56c0-4.417969-3.582031-8-8-8zm-213.136719-48.328125h64.800781l13.601563 20.726563c1.488281 2.265624 4.023437 3.621093 6.734375 3.601562h59.199219l5.105469 23.671875h-159.800782zm61.601563 80h-96.464844v-15.671875h208v15.320312zm-100.464844 296.328125c-6.628906 0-12-5.371094-12-12s5.371094-12 12-12 12 5.371094 12 12-5.371094 12-12 12zm216 0c-6.628906 0-12-5.371094-12-12s5.371094-12 12-12 12 5.371094 12 12-5.371094 12-12 12zm20-72.3125v32.3125h-256v-32.3125h21.601562c.996094.433594 2.070313.660156 3.160157.664062l195.726562-.664062zm8-193.597656-12.945312 25.910156h-11.261719v-14.070312l7.34375-14.273438c.570312-1.132812.867187-2.386719.863281-3.65625v-40h16zm0 0"/><path d="m248 336h160v16h-160zm0 0"/><path d="m248 296h160v16h-160zm0 0"/><path d="m280 104h16v16h-16zm0 0"/><path d="m264 280c13.253906 0 24-10.746094 24-24s-10.746094-24-24-24h-72v-192c-.027344-22.082031-17.917969-39.9726562-40-40h-64c-22.082031.0273438-39.972656 17.917969-40 40v376h-40c-4.417969 0-8 3.582031-8 8v48c0 4.417969 3.582031 8 8 8h128c4.417969 0 8-3.582031 8-8v-48c0-4.417969-3.582031-8-8-8h-40v-368h48v192c.027344 22.082031 17.917969 39.972656 40 40zm-136 152v32h-112v-32h40c4.417969 0 8-3.582031 8-8v-24h16v24c0 4.417969 3.582031 8 8 8zm-16-400h-16c-8.835938 0-16 7.164062-16 16v336h-16v-344c0-13.253906 10.746094-24 24-24h24zm48 208v-192c0-8.835938-7.164062-16-16-16h-16v-16h24c13.253906 0 24 10.746094 24 24v192c0 8.835938 7.164062 16 16 16h72c4.417969 0 8 3.582031 8 8s-3.582031 8-8 8h-80c-13.253906 0-24-10.746094-24-24zm0 0"/></svg>