<svg id="Capa_1" enable-background="new 0 0 511.222 511.222" height="512" viewBox="0 0 511.222 511.222" width="512" xmlns="http://www.w3.org/2000/svg"><g><g><path d="m470.366 313.671h-411.673v66.712h411.672c18.422 0 33.356-14.934 33.356-33.356.001-18.422-14.933-33.356-33.355-33.356z" fill="#bed9fd"/></g><g><path d="m470.366 313.671h-30c18.422 0 33.356 14.934 33.356 33.356 0 18.422-14.934 33.356-33.356 33.356h30c18.422 0 33.356-14.934 33.356-33.356 0-18.422-14.934-33.356-33.356-33.356z" fill="#9ec8fc"/></g><g><path d="m58.25 174.42-6.45-3.354c-10.105-5.254-14.037-17.705-8.783-27.81l31.367-60.328c5.254-10.105 17.705-14.037 27.81-8.783l6.45 3.354c10.105 5.254 14.037 17.705 8.783 27.81l-31.367 60.328c-5.254 10.105-17.705 14.037-27.81 8.783z" fill="#9ec8fc"/></g><g><path d="m181.345 174.42 6.45-3.354c10.105-5.254 14.037-17.705 8.783-27.81l-31.368-60.328c-5.254-10.105-17.705-14.037-27.81-8.783l-6.45 3.354c-10.105 5.254-14.037 17.705-8.783 27.81l31.367 60.328c5.255 10.105 17.706 14.037 27.811 8.783z" fill="#9ec8fc"/></g><g><path d="m68.427 380.383h-48.097v-148.496c0-10.097 8.185-18.283 18.282-18.283h11.532c10.097 0 18.283 8.185 18.283 18.283z" fill="#5392f9"/></g><g><path d="m482.145 472.934h-400.889v-92.55h406.193v87.245c0 2.93-2.375 5.305-5.304 5.305z" fill="#62a4fb"/></g><g><path d="m457.449 380.383v87.245c0 2.93-2.375 5.305-5.305 5.305h30c2.93 0 5.305-2.375 5.305-5.305v-87.245z" fill="#5392f9"/></g><g><path d="m12.805 472.934h68.451v-96.528c0-20.367-16.511-36.878-36.878-36.878-20.367 0-36.878 16.511-36.878 36.878v91.224c0 2.929 2.375 5.304 5.305 5.304z" fill="#5392f9"/></g><g><path d="m44.378 339.527c-5.343 0-10.416 1.146-15 3.19 12.889 5.748 21.878 18.664 21.878 33.688v96.528h30v-96.528c0-20.367-16.51-36.878-36.878-36.878z" fill="#4981f8"/></g><g><ellipse cx="44.282" cy="195.025" fill="#4071f7" rx="24.881" ry="24.881" transform="matrix(.094 -.996 .996 .094 -154.04 220.797)"/></g><g><ellipse cx="119.798" cy="63.173" fill="#4071f7" rx="24.881" ry="24.881" transform="matrix(.393 -.92 .92 .393 14.62 148.496)"/></g><path d="m20.33 347.027v-115.14c0-10.097 8.185-18.283 18.282-18.283h11.532c10.097 0 18.283 8.185 18.283 18.283v111.779" fill="#9ec8fc"/><g><circle cx="110.047" cy="347.027" r="7.5"/><circle cx="168.117" cy="347.027" r="7.5"/><circle cx="226.187" cy="347.027" r="7.5"/><circle cx="284.256" cy="347.027" r="7.5"/><circle cx="342.326" cy="347.027" r="7.5"/><circle cx="400.396" cy="347.027" r="7.5"/><circle cx="458.465" cy="347.027" r="7.5"/><path d="m511.222 347.027c0-22.528-18.328-40.856-40.856-40.856h-291.049c-4.142 0-7.5 3.358-7.5 7.5s3.358 7.5 7.5 7.5h291.048c14.257 0 25.856 11.599 25.856 25.856s-11.599 25.856-25.856 25.856h-381.761c-.854-10.81-5.585-20.545-12.816-27.797.088-.461.139-23.915.139-23.915h73.391c4.142 0 7.5-3.358 7.5-7.5s-3.358-7.5-7.5-7.5h-73.391v-74.284c0-6.411-2.357-12.278-6.244-16.793 2.854-3.607 4.921-7.782 6.039-12.319 1.615-6.551 1.088-13.299-1.237-19.355.585-.145 1.168-.297 1.748-.48 7.163-2.262 13.016-7.178 16.481-13.843l27.084-52.089 27.083 52.089c3.465 6.665 9.318 11.581 16.481 13.843 2.793.882 5.654 1.32 8.502 1.32 3.261 0 6.502-.58 9.601-1.717l19.316 33.455-12.146 21.713c-1.153 2.062-1.268 4.547-.309 6.706l6.278 14.136c1.242 2.797 3.984 4.458 6.858 4.458 1.017 0 2.051-.208 3.04-.647 3.786-1.681 5.492-6.113 3.81-9.898l-4.754-10.706 9.844-17.597 19.896 4.552 4.754 10.706c1.242 2.797 3.984 4.458 6.858 4.458 1.017 0 2.051-.208 3.04-.647 3.786-1.681 5.492-6.113 3.811-9.898l-6.277-14.136c-.959-2.159-2.879-3.741-5.182-4.267l-26.291-6.015-19.257-33.353c11.12-8.027 14.989-23.242 8.479-35.764l-31.368-60.328c-3.987-7.667-11.344-13.056-19.732-14.658.773-15.179-9.292-29.307-24.586-33.077-17.334-4.275-34.916 6.354-39.19 23.69-.776 3.149-1.055 6.305-.897 9.389-8.386 1.603-15.748 6.995-19.731 14.656l-31.368 60.328c-4.04 7.77-4.082 16.577-.878 24.061-2.759.783-5.432 1.932-7.953 3.456-7.402 4.474-12.619 11.563-14.689 19.961-2.436 9.881-.083 20.148 6.133 27.932-3.828 4.5-6.145 10.323-6.145 16.68v113.345c-7.925 8.018-12.829 19.031-12.829 31.171v91.224c0 7.061 5.745 12.805 12.805 12.805h140.68c4.142 0 7.5-3.358 7.5-7.5s-3.358-7.5-7.5-7.5h-64.729v-77.55h381.609c3.301 0 6.508-.404 9.583-1.146v78.696h-296.463c-4.142 0-7.5 3.358-7.5 7.5s3.358 7.5 7.5 7.5h298.659c7.061 0 12.805-5.744 12.805-12.805v-87.246c0-.243-.014-.483-.036-.72 9.897-7.463 16.309-19.314 16.309-32.636zm-483.392-115.14c0-5.945 4.837-10.783 10.782-10.783h11.532c5.946 0 10.783 4.837 10.783 10.783v103.353c-5.118-2.065-10.7-3.213-16.548-3.213s-11.431 1.148-16.548 3.213v-103.353zm130.727-145.499 31.368 60.328c3.338 6.42.831 14.358-5.589 17.696l-6.45 3.354c-3.109 1.617-6.662 1.926-10.005.871-3.342-1.056-6.074-3.35-7.69-6.459l-31.367-60.329c-1.16-2.231-1.637-4.734-1.417-7.21 8.514-2.074 15.972-7.558 20.434-15.277 4.591.328 8.589 2.935 10.716 7.026zm-55.635-27.375c1.951-7.914 9.068-13.223 16.876-13.223 1.373 0 2.768.164 4.159.507 9.305 2.294 15.01 11.73 12.716 21.036-2.293 9.305-11.732 15.011-21.036 12.716-9.305-2.294-15.009-11.73-12.715-21.036zm-53.252 87.703 31.368-60.328c2.129-4.094 6.137-6.709 10.74-7.032 4.256 7.367 11.376 13.065 20.27 15.257.052.013.105.021.157.034.225 2.485-.264 4.954-1.432 7.201l-31.368 60.329c-1.617 3.11-4.348 5.404-7.69 6.459-3.342 1.056-6.895.746-10.006-.871l-6.45-3.354c-6.419-3.337-8.927-11.275-5.589-17.695zm-22.264 44.149c1.111-4.508 3.911-8.313 7.884-10.715 3.974-2.401 8.644-3.112 13.151-2.001.353.087.705.138 1.056.173l4.776 2.483c5.827 4.098 8.595 11.441 6.884 18.379-.729 2.96-2.198 5.639-4.275 7.818-2.149-.583-4.407-.899-6.738-.899h-11.532c-2.384 0-4.691.332-6.884.941-4.101-4.285-5.757-10.359-4.322-16.179zm46.35 274.569h-58.756v-89.028c0-16.199 13.179-29.378 29.378-29.378s29.378 13.179 29.378 29.378z"/></g></g></svg>