<svg id="Capa_1" enable-background="new 0 0 512 512" height="512" viewBox="0 0 512 512" width="512" xmlns="http://www.w3.org/2000/svg"><g><g><path d="m426.844 27.5v457c0 11.05-8.96 20-20 20h-336.46c-11.04 0-20-8.95-20-20v-457c0-11.05 8.96-20 20-20h336.46c11.04 0 20 8.95 20 20z" fill="#fca62f"/><path d="m426.844 27.5v457c0 11.05-8.96 20-20 20h-19.69c11.04 0 20-8.95 20-20v-457c0-11.05-8.96-20-20-20h19.69c11.04 0 20 8.95 20 20z" fill="#fb9927"/><path d="m426.844 121.41v113.06c-8.58 4.35-18.28 6.8-28.56 6.8-34.97 0-63.33-28.36-63.33-63.33 0-34.98 28.36-63.33 63.33-63.33 10.28 0 19.98 2.45 28.56 6.8z" fill="#fb9927"/><g><path d="m394.364 47.11v417.09c0 5.18-4.2 9.38-9.39 9.38h-292.72c-5.19 0-9.39-4.2-9.39-9.38v-417.09c0-5.18 4.2-9.39 9.39-9.39h292.72c5.19 0 9.39 4.21 9.39 9.39z" fill="#f8f3f1"/><g fill="#efe2dd"><path d="m141.114 37.72v27.65c0 5.52 4.48 10 10 10h5.68v13.4c0 12.81 10.42 23.23 23.23 23.23h117.18c12.81 0 23.23-10.42 23.23-23.23v-13.4h5.68c5.52 0 10-4.48 10-10v-27.65zm164.32 51.05c0 4.54-3.69 8.23-8.23 8.23h-117.18c-4.54 0-8.23-3.69-8.23-8.23v-13.4h133.64z"/><path d="m394.365 47.108v417.087c0 5.182-4.206 9.388-9.388 9.388h-21.733c5.182 0 9.388-4.206 9.388-9.388v-417.087c0-5.182-4.206-9.388-9.388-9.388h21.733c5.182.001 9.388 4.206 9.388 9.388z"/></g></g><path d="m326.114 60.367h-175c-5.523 0-10-4.477-10-10v-42.867h195v42.867c0 5.523-4.477 10-10 10z" fill="#5bbd93"/><path d="m336.114 7.5v42.87c0 5.52-4.48 10-10 10h-19.69c5.52 0 10-4.48 10-10v-42.87z" fill="#2db181"/><circle cx="398.286" cy="160.328" fill="#bcea73" r="63.328"/><path d="m461.614 160.33c0 34.97-28.35 63.33-63.33 63.33-3.31 0-6.56-.25-9.74-.74 30.35-4.69 53.59-30.93 53.59-62.59 0-31.67-23.24-57.9-53.59-62.58 3.18-.5 6.43-.75 9.74-.75 34.98 0 63.33 28.35 63.33 63.33z" fill="#a3e440"/></g><path d="m155.989 222.105h-29c-2.761 0-5-2.239-5-5v-29c0-2.761 2.239-5 5-5h29c2.761 0 5 2.239 5 5v29c0 2.762-2.239 5-5 5z" fill="#bcea73"/><g><path d="m155.989 322.317h-29c-2.761 0-5-2.239-5-5v-29c0-2.761 2.239-5 5-5h29c2.761 0 5 2.239 5 5v29c0 2.761-2.239 5-5 5z" fill="#bcea73"/><g><path d="m123.817 437.748c.131 0 .264-.003.396-.01 7.523-.392 14.848-2.175 21.657-5.104 7.433 6.919 18.957 6.714 30.402-.86.195-.129.38-.249.556-.36 1.184 1.5 2.713 2.689 4.52 3.489 6.466 2.861 13.76-.456 15.841-1.542 3.175-1.655 6.262-3.507 9.229-5.534 1.584 4.027 4.761 6.94 8.824 7.721 3.863.745 7.165-.758 8.574-1.4 4.866-2.212 9.434-5.013 13.615-8.346 16.567 10.859 38.141 9.054 57.223 6.442 4.104-.562 6.976-4.343 6.414-8.447-.561-4.104-4.338-6.978-8.447-6.414-17.083 2.336-36.337 4.047-48.624-5.296-4.202-3.197-10.163-2.973-14.173.532-2.964 2.59-6.211 4.814-9.681 6.634-.616-3.47-2.801-6.451-6.046-8.086-3.928-1.979-8.517-1.512-11.979 1.217-3.702 2.92-7.693 5.503-11.863 7.676-.704.367-1.383.616-1.948.771-1.456-3.154-3.897-4.534-5.377-5.105-5.429-2.096-11.124 1.016-14.936 3.539-.685.453-2.611 1.665-4.819 2.502 8.674-7.521 15.379-17.264 18.91-28.304 1.796-5.615.151-11.727-4.189-15.57-4.723-4.182-12.84-5.7-21.458 2.572-9.057 8.694-15.083 20.251-16.968 32.542-.316 2.058-.372 4.094-.178 6.068-5.04 2.109-10.408 3.399-15.86 3.683-4.137.215-7.315 3.744-7.1 7.88.21 4.004 3.521 7.11 7.485 7.11zm43.01-46.462c.068-.065.135-.128.2-.188-2.346 6.161-6.09 11.785-10.787 16.53 2.196-6.133 5.824-11.769 10.587-16.342z"/><path d="m175.801 41.434h.964c4.142 0 7.5-3.358 7.5-7.5s-3.358-7.5-7.5-7.5h-.964c-4.142 0-7.5 3.358-7.5 7.5s3.357 7.5 7.5 7.5z"/><path d="m300.463 41.434h.964c4.142 0 7.5-3.358 7.5-7.5s-3.358-7.5-7.5-7.5h-.964c-4.142 0-7.5 3.358-7.5 7.5s3.358 7.5 7.5 7.5z"/><path d="m434.341 99.398v-71.898c0-15.164-12.336-27.5-27.5-27.5h-68.022c-.463 0-.913.048-1.353.128-.439-.08-.889-.128-1.352-.128h-195c-.485 0-.957.05-1.417.138-.459-.088-.931-.138-1.416-.138h-67.895c-15.164 0-27.5 12.336-27.5 27.5v349c0 4.142 3.358 7.5 7.5 7.5s7.5-3.358 7.5-7.5v-349c0-6.893 5.607-12.5 12.5-12.5h63.228v15.225h-41.364c-9.312 0-16.888 7.576-16.888 16.888v417.082c0 9.312 7.576 16.888 16.888 16.888h292.727c9.312 0 16.888-7.576 16.888-16.888v-72.695c0-4.142-3.358-7.5-7.5-7.5s-7.5 3.358-7.5 7.5v72.695c0 1.041-.847 1.888-1.888 1.888h-292.727c-1.041 0-1.888-.847-1.888-1.888v-417.082c0-1.041.847-1.888 1.888-1.888h41.364v5.142c0 9.649 7.851 17.5 17.5 17.5h5.678v11.903c0 12.81 10.421 23.23 23.23 23.23h117.183c12.809 0 23.23-10.421 23.23-23.23v-11.903h5.678c9.649 0 17.5-7.851 17.5-17.5v-5.142h41.363c1.041 0 1.888.847 1.888 1.888v43.321c-24.317 3.96-44.519 20.334-53.849 42.394h-215.503c-4.142 0-7.5 3.358-7.5 7.5s3.358 7.5 7.5 7.5h211.072c-.727 4.061-1.127 8.233-1.127 12.5 0 16.363 5.593 31.435 14.946 43.44h-148.233c-4.142 0-7.5 3.358-7.5 7.5s3.358 7.5 7.5 7.5h164.178c8.391 5.753 18.07 9.753 28.516 11.454v127.278c0 4.142 3.358 7.5 7.5 7.5s7.5-3.358 7.5-7.5v-126.435c6.055-.303 11.912-1.368 17.477-3.104v256.539c0 6.893-5.607 12.5-12.5 12.5h-336.455c-6.893 0-12.5-5.607-12.5-12.5v-74c0-4.142-3.358-7.5-7.5-7.5s-7.5 3.358-7.5 7.5v74c0 15.164 12.336 27.5 27.5 27.5h336.455c15.164 0 27.5-12.336 27.5-27.5v-263.242c20.797-12.354 34.772-35.036 34.772-60.93s-13.975-48.576-34.772-60.93zm-105.727-49.031c0 1.378-1.122 2.5-2.5 2.5h-104.615c-4.142 0-7.5 3.358-7.5 7.5s3.358 7.5 7.5 7.5h83.937v11.903c0 4.538-3.692 8.23-8.23 8.23h-117.184c-4.538 0-8.23-3.692-8.23-8.23v-11.903h15.707c4.142 0 7.5-3.358 7.5-7.5s-3.358-7.5-7.5-7.5h-36.385c-1.378 0-2.5-1.122-2.5-2.5v-35.367h180zm56.363-20.142h-41.363v-15.225h63.227c6.893 0 12.5 5.607 12.5 12.5v65.195c-5.564-1.736-11.422-2.802-17.477-3.104v-42.478c.001-9.312-7.575-16.888-16.887-16.888zm-26.89 188.373c.01.007.021.013.032.021-.051-.007-.065-.014-.032-.021zm40.199-2.442c-30.784 0-55.828-25.044-55.828-55.828s25.044-55.828 55.828-55.828 55.828 25.044 55.828 55.828-25.044 55.828-55.828 55.828z"/><path d="m419.168 135.025-34.697 34.697-6.363-6.363c-2.929-2.929-7.678-2.929-10.606 0-2.929 2.929-2.929 7.678 0 10.606l11.667 11.667c1.464 1.464 3.384 2.197 5.303 2.197s3.839-.732 5.303-2.197l40-40c2.929-2.929 2.929-7.678 0-10.606-2.929-2.93-7.678-2.93-10.607-.001z"/><path d="m126.989 229.605h29c6.893 0 12.5-5.607 12.5-12.5v-29c0-6.893-5.607-12.5-12.5-12.5h-29c-6.893 0-12.5 5.607-12.5 12.5v29c0 6.893 5.607 12.5 12.5 12.5zm2.5-39h24v24h-24z"/><path d="m197.902 248.184c4.142 0 7.5-3.358 7.5-7.5s-3.358-7.5-7.5-7.5h-1.014c-4.142 0-7.5 3.358-7.5 7.5s3.358 7.5 7.5 7.5z"/><path d="m221.642 248.184c4.142 0 7.5-3.358 7.5-7.5s-3.358-7.5-7.5-7.5h-1.015c-4.142 0-7.5 3.358-7.5 7.5s3.358 7.5 7.5 7.5z"/><path d="m244.368 248.184h1.014c4.142 0 7.5-3.358 7.5-7.5s-3.358-7.5-7.5-7.5h-1.014c-4.142 0-7.5 3.358-7.5 7.5s3.358 7.5 7.5 7.5z"/><path d="m269.122 248.184c4.142 0 7.5-3.358 7.5-7.5s-3.358-7.5-7.5-7.5h-1.015c-4.142 0-7.5 3.358-7.5 7.5s3.358 7.5 7.5 7.5z"/><path d="m194.17 190.605h44.024c4.142 0 7.5-3.358 7.5-7.5s-3.358-7.5-7.5-7.5h-44.024c-4.142 0-7.5 3.358-7.5 7.5s3.358 7.5 7.5 7.5z"/><path d="m114.489 317.316c0 6.893 5.607 12.5 12.5 12.5h29c6.893 0 12.5-5.607 12.5-12.5v-29c0-6.893-5.607-12.5-12.5-12.5h-29c-6.893 0-12.5 5.607-12.5 12.5zm15-26.5h24v24h-24z"/><path d="m196.888 348.395h1.014c4.142 0 7.5-3.358 7.5-7.5s-3.358-7.5-7.5-7.5h-1.014c-4.142 0-7.5 3.358-7.5 7.5s3.358 7.5 7.5 7.5z"/><path d="m220.628 348.395h1.015c4.142 0 7.5-3.358 7.5-7.5s-3.358-7.5-7.5-7.5h-1.015c-4.142 0-7.5 3.358-7.5 7.5s3.358 7.5 7.5 7.5z"/><path d="m245.382 348.395c4.142 0 7.5-3.358 7.5-7.5s-3.358-7.5-7.5-7.5h-1.014c-4.142 0-7.5 3.358-7.5 7.5s3.358 7.5 7.5 7.5z"/><path d="m269.122 348.395c4.142 0 7.5-3.358 7.5-7.5s-3.358-7.5-7.5-7.5h-1.015c-4.142 0-7.5 3.358-7.5 7.5s3.358 7.5 7.5 7.5z"/><path d="m365.006 311.479c0-4.142-3.358-7.5-7.5-7.5h-163.336c-4.142 0-7.5 3.358-7.5 7.5s3.358 7.5 7.5 7.5h163.336c4.142 0 7.5-3.357 7.5-7.5z"/><path d="m186.67 283.316c0 4.142 3.358 7.5 7.5 7.5h44.024c4.142 0 7.5-3.358 7.5-7.5s-3.358-7.5-7.5-7.5h-44.024c-4.142 0-7.5 3.358-7.5 7.5z"/></g></g></g></svg>