<?xml version="1.0" encoding="UTF-8"?>
<svg xmlns="http://www.w3.org/2000/svg" xmlns:xlink="http://www.w3.org/1999/xlink" width="512" height="512" viewBox="0 0 60 60" version="1.1"><!-- Generator: Sketch 50.2 (55047) - http://www.bohemiancoding.com/sketch --><title>005 - Factory </title><desc>Created with Sketch.</desc><defs/><g id="Page-1" stroke="none" stroke-width="1" fill="none" fill-rule="evenodd"><g id="005---Factory-" fill-rule="nonzero"><g id="Icons" transform="translate(1.000000, 1.000000)"><path d="M38.49,23.91 L30,29 L30,24.77 C29.9999373,24.4106951 29.8071171,24.0790435 29.494899,23.9012239 C29.1826808,23.7234043 28.7990648,23.7267545 28.49,23.91 L20,29 L20,24.77 C19.9999373,24.4106951 19.8071171,24.0790435 19.494899,23.9012239 C19.1826808,23.7234043 18.7990648,23.7267545 18.49,23.91 L10,29 L10,24.77 C9.99993734,24.4106951 9.80711714,24.0790435 9.49489899,23.9012239 C9.18268084,23.7234043 8.79906484,23.7267545 8.49,23.91 L0,29 L0,31 L40,31 L40,24.77 C39.9999373,24.4106951 39.8071171,24.0790435 39.494899,23.9012239 C39.1826808,23.7234043 38.7990648,23.7267545 38.49,23.91 Z" id="Shape" fill="#0377BC"/><path d="M25.05,1.85 C25.3562442,1.77899107 25.6669601,1.72887562 25.98,1.7 L25.85,2.07 C25.83,2.06 25.8,2.05 25.78,2.04 C25.54088,1.96146125 25.2970676,1.89800325 25.05,1.85 Z" id="Shape" fill="#607D8B"/><path d="M48,1.99 C46.3433216,0.743411999 44.2260274,0.279797571 42.2,0.72 L41.59,0.84 C40.6889228,1.03750973 39.8180037,1.3535962 39,1.78 L38.77,1.99 C38.3337347,1.66231145 37.8563183,1.39334443 37.35,1.19 C35.8003992,0.605859864 34.1250178,0.436942806 32.49,0.7 C32.1911101,0.731230289 31.8940434,0.777959872 31.6,0.84 C30.7071188,1.01726096 29.8355713,1.28878153 29,1.65 L28.85,2.07 C28.83,2.06 28.8,2.05 28.78,2.04 C27.8762141,1.75222959 26.9263923,1.63689408 25.98,1.7 L25.85,2.07 C25.83,2.06 25.8,2.05 25.78,2.04 C25.54088,1.96146125 25.2970676,1.89800325 25.05,1.85 C24.4830062,1.97738387 23.9419069,2.2005873 23.45,2.51 C21.430175,3.87990565 20.5349701,6.40349252 21.24,8.74 C21.8431957,10.3855854 23.2966497,11.5705914 25.03,11.83 L25,12 C25,12 25,17 33,17 L33.06,16.96 C33.5342644,17.5739883 34.1524781,18.0616902 34.86,18.38 C35.3520246,18.6108022 35.8736483,18.7723373 36.41,18.86 C36.9344758,18.9561384 37.4667942,19.0030092 38,19 C40.4873956,18.9992261 42.7964173,17.7084451 44.1,15.59 L50,6 C49.9250932,4.44202961 49.1994444,2.98710376 48,1.99 Z" id="Shape" fill="#607D8B"/><path d="M46.64,6.59 L41.1,15.59 C40.0557996,17.2813525 38.358086,18.4650462 36.41,18.86 C35.8736483,18.7723373 35.3520246,18.6108022 34.86,18.38 C34.1524781,18.0616902 33.5342644,17.5739883 33.06,16.96 L33,17 C25,17 25,12 25,12 L25.03,11.83 C23.2966497,11.5705914 21.8431957,10.3855854 21.24,8.74 C20.5349701,6.40349252 21.430175,3.87990565 23.45,2.51 C23.9419069,2.2005873 24.4830062,1.97738387 25.05,1.85 C25.2970676,1.89800325 25.54088,1.96146125 25.78,2.04 C25.8,2.05 25.83,2.06 25.85,2.07 L25.98,1.7 C26.9263923,1.63689408 27.8762141,1.75222959 28.78,2.04 C28.8,2.05 28.83,2.06 28.85,2.07 L29,1.65 C29.8355713,1.28878153 30.7071188,1.01726096 31.6,0.84 C31.8940434,0.777959872 32.1911101,0.731230289 32.49,0.7 C34.1250178,0.436942806 35.8003992,0.605859864 37.35,1.19 C37.8563183,1.39334443 38.3337347,1.66231145 38.77,1.99 L39,1.78 C39.8180037,1.3535962 40.6889228,1.03750973 41.59,0.84 L42.2,0.72 C43.2291712,0.888434577 44.1953095,1.32664732 45,1.99 C45.9725404,2.80814097 46.6446276,3.92711345 46.91,5.17 C46.9984205,5.66043451 46.9022459,6.1662415 46.64,6.59 Z" id="Shape" fill="#CFD8DC"/><path d="M52,11.22 L52,16 L46,16 L46,11.22 C46.0027399,10.5473508 46.5473508,10.0027399 47.22,10 L50.78,10 C51.4526492,10.0027399 51.9972601,10.5473508 52,11.22 Z" id="Shape" fill="#37474F"/><polygon id="Shape" fill="#37474F" points="55 37 43 37 45.74 16 46 14 52 14"/><path d="M49,11.22 L49,16 L45.74,16 L46,14 L46,11.22 C46.0027399,10.5473508 46.5473508,10.0027399 47.22,10 L47.78,10 C48.4526492,10.0027399 48.9972601,10.5473508 49,11.22 Z" id="Shape" fill="#607D8B"/><polygon id="Shape" fill="#607D8B" points="52 37 43 37 45.74 16 46 14 49 14 49.26 16"/><path d="M58,37.03 L58.0000005,55 L38,55 L38,35.9999995 L56.97,36 C57.2432543,35.9997343 57.5053933,36.1081665 57.6986134,36.3013866 C57.8918335,36.4946067 58.0002657,36.7567457 58,37.03 Z" id="Shape" fill="#1566C0"/><path d="M55,37.03 L55.0000005,55 L38,55 L38,35.9999995 L53.97,36 C54.2432543,35.9997343 54.5053933,36.1081665 54.6986134,36.3013866 C54.8918335,36.4946067 55.0002657,36.7567457 55,37.03 Z" id="Shape" fill="#2296F3"/><rect id="Rectangle-path" fill="#0377BC" x="0" y="29" width="40" height="26"/><rect id="Rectangle-path" fill="#02A9F4" x="0" y="29" width="37" height="26"/><rect id="Rectangle-path" fill="#FFFFFF" x="4" y="41" width="7" height="6" rx="1"/><rect id="Rectangle-path" fill="#FFFFFF" x="15" y="41" width="7" height="6" rx="1"/><path d="M36,39.063 L36,55 L26,55 L26,39.063 C25.9848332,38.4941657 26.4313002,38.0195713 27,38 L35,38 C35.5686998,38.0195713 36.0151668,38.4941657 36,39.063 Z" id="Shape" fill="#607D8B"/><path d="M47,47 L51,47 C51.5522847,47 52,47.4477153 52,48 L52,54 L46,54 L46,48 C46,47.4477153 46.4477153,47 47,47 Z" id="Shape" fill="#FFEB3A"/><path d="M58,54 L58,57 C58,57.5522847 57.5522847,58 57,58 L1,58 C0.44771525,58 0,57.5522847 0,57 L0,54 L58,54 Z" id="Shape" fill="#FDD834"/><path d="M55,54 L55,57 C55,57.5522847 54.5522847,58 54,58 L1,58 C0.44771525,58 0,57.5522847 0,57 L0,54 L55,54 Z" id="Shape" fill="#FFEB3A"/></g><g id="Outline" fill="#000000"><path d="M2,60 L58,60 C59.1045695,60 60,59.1045695 60,58 L60,37 C60,36.4477153 59.5522847,36 59,36 L56.873,36 L54,14.929 L54,11 C54,10.4477153 53.5522847,10 53,10 L47,10 C46.4477153,10 46,10.4477153 46,11 L46,14.933 L43.127,36 L42,36 L42,24 C41.9999315,23.6396568 41.8059998,23.3072172 41.4923601,23.1297986 C41.1787205,22.95238 40.7938826,22.9574232 40.485,23.143 L32,28.234 L32,24 C31.9999315,23.6396568 31.8059998,23.3072172 31.4923601,23.1297986 C31.1787205,22.95238 30.7938826,22.9574232 30.485,23.143 L22,28.234 L22,24 C21.9999315,23.6396568 21.8059998,23.3072172 21.4923601,23.1297986 C21.1787205,22.95238 20.7938826,22.9574232 20.485,23.143 L15.485,26.143 C15.0227947,26.4322402 14.8774887,27.0384316 15.1583363,27.5057839 C15.439184,27.9731362 16.042653,28.1293636 16.515,27.857 L20,25.766 L20,29 L12,29 L12,24 C11.9999315,23.6396568 11.8059998,23.3072172 11.4923601,23.1297986 C11.1787205,22.95238 10.7938826,22.9574232 10.485,23.143 L0.485,29.143 C0.454712762,29.1671553 0.425988411,29.1932076 0.399,29.221 C0.344353184,29.261678 0.294083022,29.3079266 0.249,29.359 C0.208358571,29.4075466 0.172836984,29.4601587 0.143,29.516 C0.111068866,29.5695431 0.0846024114,29.6261612 0.064,29.685 C0.0429556754,29.7499391 0.0292043599,29.8170187 0.023,29.885 C0.0127990655,29.9227826 0.00511553275,29.9612003 -3.93018951e-16,30 L-3.93018951e-16,58 C-3.79129905e-16,58.530433 0.210713681,59.0391408 0.585786438,59.4142136 C0.960859195,59.7892863 1.46956702,60 2,60 Z M40,31 L40,54 L38,54 L38,40 C38,38.8954305 37.1045695,38 36,38 L28,38 C26.8954305,38 26,38.8954305 26,40 L26,54 L2,54 L2,36 L9,36 C9.55228475,36 10,35.5522847 10,35 C10,34.4477153 9.55228475,34 9,34 L2,34 L2,31 L40,31 Z M28,52 L33,52 C33.5522847,52 34,51.5522847 34,51 C34,50.4477153 33.5522847,50 33,50 L28,50 L28,48 L33,48 C33.5522847,48 34,47.5522847 34,47 C34,46.4477153 33.5522847,46 33,46 L28,46 L28,44 L33,44 C33.5522847,44 34,43.5522847 34,43 C34,42.4477153 33.5522847,42 33,42 L28,42 L28,40 L36,40 L36,54 L28,54 L28,52 Z M58,58 L2,58 L2,56 L58,56 L58,58 Z M52,54 L48,54 L48,49 L52,49 L52,54 Z M48,12 L52,12 L52,14 L48,14 L48,12 Z M47.873,16 L52.127,16 L54.854,36 L45.146,36 L47.873,16 Z M58,38 L58,54 L54,54 L54,49 C54,47.8954305 53.1045695,47 52,47 L48,47 C46.8954305,47 46,47.8954305 46,49 L46,54 L42,54 L42,43 L46,43 C46.5522847,43 47,42.5522847 47,42 C47,41.4477153 46.5522847,41 46,41 L42,41 L42,38 L58,38 Z M40,29 L34.61,29 L40,25.766 L40,29 Z M30,29 L24.61,29 L30,25.766 L30,29 Z M10,29 L4.61,29 L10,25.766 L10,29 Z" id="Shape"/><path d="M13,36 L24,36 C24.5522847,36 25,35.5522847 25,35 C25,34.4477153 24.5522847,34 24,34 L13,34 C12.4477153,34 12,34.4477153 12,35 C12,35.5522847 12.4477153,36 13,36 Z" id="Shape"/><path d="M4,43 L4,47 C4,48.1045695 4.8954305,49 6,49 L11,49 C12.1045695,49 13,48.1045695 13,47 L13,43 C13,41.8954305 12.1045695,41 11,41 L6,41 C4.8954305,41 4,41.8954305 4,43 Z M11,47 L6,47 L6,43 L11,43 L11,47 Z" id="Shape"/><path d="M22,41 L17,41 C15.8954305,41 15,41.8954305 15,43 L15,47 C15,48.1045695 15.8954305,49 17,49 L22,49 C23.1045695,49 24,48.1045695 24,47 L24,43 C24,41.8954305 23.1045695,41 22,41 Z M17,47 L17,43 L22,43 L22,47 L17,47 Z" id="Shape"/><path d="M50,43 L55,43 C55.5522847,43 56,42.5522847 56,42 C56,41.4477153 55.5522847,41 55,41 L50,41 C49.4477153,41 49,41.4477153 49,42 C49,42.5522847 49.4477153,43 50,43 Z" id="Shape"/><path d="M25.069,13.579 C25.344,15.056 26.741,18.842 33.619,18.984 C35.0438694,20.3914113 37.001123,21.1246994 39,21 L40.065,20.355 C40.2124591,20.7433227 40.5846222,21.0000555 41,21 L42.306,21 L40.653,20 L42.306,19 L41,19 C40.5846222,18.9999445 40.2124591,19.2566773 40.065,19.645 L39,19 C34.2,19 34.006,15.411 34,14.995 C33.9986193,14.4427153 33.5497847,13.9961193 32.9975,13.9975 C32.4452153,13.9988807 31.9986193,14.4477153 32,15 C32.0093854,15.6501862 32.1280398,16.2941654 32.351,16.905 C28.923,16.529 27.682,15.012 27.245,13.975 C27.397,13.983 27.553,14 27.7,14 C28.2522847,14 28.7,13.5522847 28.7,13 C28.7,12.4477153 28.2522847,12 27.7,12 C25.984,12 23.773,11.332 23.191,9.447 C22.617908,7.53937262 23.3460807,5.48026189 24.991,4.357 C26.3617793,3.59022922 27.9980205,3.45667341 29.475,3.991 C30.1872131,4.2263104 30.8769595,4.52483235 31.536,4.883 C32.022011,5.12959688 32.6159861,4.94161886 32.8716323,4.46030637 C33.1272784,3.97899388 32.9504456,3.38160595 32.474,3.117 C32.374,3.064 32.283,3.027 32.185,2.978 C32.391,2.925 32.592,2.863 32.801,2.821 C34.308,2.521 37.138,2.258 39.167,3.788 C40.2302777,4.54135105 40.9022874,5.72955802 41,7.029 C41.0156934,7.56992739 41.4588451,8.0002276 42,8 L42.029,8 C42.2942539,7.99241927 42.5456183,7.8797201 42.7277396,7.68672028 C42.9098609,7.49372047 43.0078038,7.23624743 43,6.971 C42.9308128,5.58363793 42.3895709,4.26158233 41.466,3.224 C41.9026177,3.05523072 42.3511897,2.91918837 42.808,2.817 C44.123,2.529 46.594,2.269 48.355,3.758 C49.3380632,4.56745233 49.9351224,5.75322284 50,7.025 C50.0135667,7.56749756 50.4573329,8.00016961 51,8 L51.025,8 C51.290244,7.99345184 51.5420128,7.88176157 51.7248783,7.68951836 C51.9077438,7.49727515 52.0067139,7.24023982 52,6.975 C51.9168124,5.13257629 51.062478,3.41011617 49.646,2.229 C47.5727552,0.659096373 44.8828612,0.153329656 42.381,0.863 C41.4730556,1.0643569 40.5936511,1.37775813 39.763,1.796 C37.5113463,0.585548581 34.8912216,0.251754318 32.408,0.859 C31.4439547,1.04983978 30.5029797,1.34282592 29.601,1.733 C29.5151994,1.77610106 29.4360536,1.83133473 29.366,1.897 C27.5190105,1.42843134 25.5618354,1.70500041 23.917,2.667 C21.5028559,4.26859727 20.4298651,7.26743749 21.28,10.037 C21.8706504,11.7773641 23.2928268,13.1068307 25.069,13.579 Z" id="Shape"/></g></g></g></svg>
