<?xml version="1.0" standalone="no"?>
<!DOCTYPE svg PUBLIC "-//W3C//DTD SVG 20010904//EN"
 "http://www.w3.org/TR/2001/REC-SVG-20010904/DTD/svg10.dtd">
<svg version="1.0" xmlns="http://www.w3.org/2000/svg"
 width="1280.000000pt" height="1280.000000pt" viewBox="0 0 1280.000000 1280.000000"
 preserveAspectRatio="xMidYMid meet">
<metadata>
Created by potrace 1.16, written by Peter Selinger 2001-2019
</metadata>
<g transform="translate(0.000000,1280.000000) scale(0.100000,-0.100000)"
fill="#000000" stroke="none">
<path d="M8078 12789 c-10 -5 -30 -31 -45 -57 l-28 -47 -3 -1057 -2 -1058 -36
40 c-66 72 -54 71 -651 68 l-531 -3 -43 -30 c-23 -16 -52 -48 -63 -70 l-21
-40 -3 -2145 -4 -2145 -233 1155 c-128 635 -245 1202 -259 1258 -167 657 -613
1258 -1203 1619 -373 228 -777 359 -1213 393 -101 8 -639 10 -1785 8 l-1640
-3 -67 -32 c-173 -82 -261 -269 -214 -453 40 -154 171 -272 321 -287 l55 -6 0
-2813 c0 -1548 2 -2814 4 -2814 2 0 30 12 62 26 33 14 93 36 134 47 73 21 96
21 860 25 826 3 1037 -3 1195 -37 168 -37 341 -105 480 -191 171 -104 359
-282 466 -437 l55 -82 241 242 c248 249 285 294 333 401 50 110 64 179 64 321
0 155 -14 220 -78 350 -94 190 -241 312 -576 480 -330 166 -645 256 -1042 300
l-57 6 -3 667 c-4 653 -4 669 -26 746 -74 267 -251 456 -507 544 -99 34 -202
42 -521 42 l-304 0 0 1090 0 1090 1193 0 c722 0 1235 -4 1302 -10 485 -45 902
-242 1236 -586 234 -243 406 -552 483 -871 13 -54 225 -1101 471 -2328 247
-1226 451 -2234 456 -2238 4 -5 49 -3 100 4 137 20 466 17 614 -5 308 -45 627
-161 895 -325 l65 -39 3 2104 2 2104 2334 0 c1421 0 2344 4 2359 9 14 5 41 24
61 41 l36 32 0 113 c0 109 -1 113 -27 140 -58 59 74 55 -2038 55 l-1945 0 -2
2293 -3 2292 -22 42 c-40 75 -31 73 -368 73 -183 0 -307 -5 -317 -11z"/>
<path d="M6465 3091 c-205 -38 -345 -86 -498 -173 -386 -219 -661 -589 -757
-1020 -43 -192 -45 -458 -5 -652 101 -482 443 -900 902 -1099 473 -205 1033
-157 1461 126 354 234 584 573 673 993 31 144 34 448 6 589 -70 348 -244 652
-494 862 -231 194 -426 294 -703 360 -146 35 -436 42 -585 14z m434 -768 c154
-32 347 -158 444 -291 52 -70 105 -182 128 -270 29 -106 29 -277 1 -383 -68
-257 -259 -458 -517 -545 -108 -36 -276 -45 -391 -19 -379 83 -632 412 -611
795 7 122 25 198 73 295 78 160 202 284 359 360 165 80 324 98 514 58z"/>
<path d="M1805 2724 c-16 -2 -70 -9 -120 -15 -265 -31 -533 -166 -741 -373
-128 -128 -191 -213 -259 -351 -101 -204 -134 -339 -142 -575 -6 -189 7 -286
58 -447 94 -294 285 -545 545 -719 388 -259 900 -295 1323 -93 153 73 262 150
381 269 147 146 254 315 324 508 93 260 94 584 1 868 -151 461 -549 812 -1025
904 -94 19 -288 32 -345 24z m205 -778 c213 -45 390 -214 444 -423 20 -77 20
-211 1 -288 -52 -204 -225 -372 -431 -421 -91 -21 -235 -14 -321 16 -242 84
-410 340 -388 590 12 145 69 265 174 371 136 136 334 195 521 155z"/>
</g>
</svg>
