<svg id="Capa_1" enable-background="new 0 0 512 512" height="512" viewBox="0 0 512 512" width="512" xmlns="http://www.w3.org/2000/svg"><g><path d="m250.484 191.581v32h-127.688v156.45h320.137v-188.45z" fill="#c6c1c8"/><path d="m402.933 191.581v136.674c0 17.549-14.227 31.776-31.776 31.776h-248.361v20h320.137v-188.45z" fill="#afaab4"/><path d="m120.259 389.455h-33.355v-204.76c0-1.401 1.136-2.537 2.537-2.537h30.817c1.401 0 2.537 1.136 2.537 2.537v202.222c.001 1.402-1.135 2.538-2.536 2.538z" fill="#5493a2"/><path d="m86.904 389.455h25.678v40h-25.678z" fill="#756e78"/><path d="m120.259 429.455h-33.355v35.892h35.892v-33.354c0-1.402-1.136-2.538-2.537-2.538z" fill="#5493a2"/><path d="m453.146 389.455h25.678v40h-25.678z" fill="#756e78" transform="matrix(-1 0 0 -1 931.97 818.909)"/><path d="m445.47 429.455h33.354v35.892h-35.892v-33.354c.001-1.402 1.136-2.538 2.538-2.538z" fill="#5493a2"/><path d="m478.824 389.455h-33.354c-1.401 0-2.537-1.136-2.537-2.537v-202.223c0-1.401 1.136-2.537 2.537-2.537h30.817c1.401 0 2.537 1.136 2.537 2.537z" fill="#5493a2"/><path d="m478.824 380.031h9.844c8.744 0 15.832-7.088 15.832-15.832v-156.786c0-8.744-7.088-15.832-15.832-15.832h-9.844z" fill="#afaab4"/><path d="m80.392 375.258 6.513 4.773v-188.45l-6.513 4.773c-22.869 16.761-36.381 43.417-36.381 71.77v35.364c0 28.353 13.512 55.009 36.381 71.77z" fill="#c6c1c8"/><path d="m44.011 316.22h-22.675c-1.509 0-2.732-1.223-2.732-2.732v-55.363c0-1.509 1.223-2.732 2.732-2.732h22.675z" fill="#afaab4"/><path d="m122.796 329.725h320.137v25.306h-320.137z" fill="#61aab7"/><path d="m122.796 223.581h127.688v106.144h-127.688z" fill="#dd6938"/><path d="m172.796 275.12v-25.005c0-.847.686-1.533 1.533-1.533h49.621c.847 0 1.533.686 1.533 1.533v25.005c0 .847-.686 1.533-1.533 1.533h-49.621c-.847 0-1.533-.686-1.533-1.533z" fill="#b1e4f9"/><path d="m250.484 223.581h-127.688v-71.628c0-2.044 1.657-3.701 3.701-3.701h120.286c2.044 0 3.701 1.657 3.701 3.701z" fill="#e27d47"/><path d="m172.956 197.048v-22.262c0-.847.686-1.533 1.533-1.533h24.301c.847 0 1.533.686 1.533 1.533v22.262c0 .847-.686 1.533-1.533 1.533h-24.301c-.846 0-1.533-.686-1.533-1.533z" fill="#b1e4f9"/><path d="m152.956 46.654h27.367v34.959h-27.367z" fill="#756e78"/><path d="m152.956 81.613h27.367v34.959h-27.367z" fill="#665e66"/><path d="m488.668 184.081h-2.363c-.319-5.249-4.69-9.423-10.018-9.423h-30.817c-5.328 0-9.699 4.174-10.018 9.423h-16.732v-25.5c0-4.143-3.357-7.5-7.5-7.5s-7.5 3.357-7.5 7.5v25.5h-13.483v-60.949c0-4.143-3.357-7.5-7.5-7.5s-7.5 3.357-7.5 7.5v60.949h-117.254v-32.128c0-6.176-5.024-11.2-11.201-11.2h-72.642v-16.682h10.992c4.143 0 7.5-3.357 7.5-7.5 0-3.194-1.996-5.921-4.809-7.002v-20.954c2.812-1.082 4.809-3.808 4.809-7.002s-1.996-5.921-4.809-7.002v-20.955c2.812-1.082 4.809-3.808 4.809-7.002 0-4.143-3.357-7.5-7.5-7.5h-36.984c-4.143 0-7.5 3.357-7.5 7.5 0 3.194 1.996 5.921 4.809 7.002v20.954c-2.812 1.082-4.809 3.808-4.809 7.002s1.996 5.921 4.809 7.002v20.955c-2.812 1.082-4.809 3.808-4.809 7.002 0 4.143 3.357 7.5 7.5 7.5h10.992v16.682h-32.643c-6.177 0-11.201 5.024-11.201 11.2v22.705h-25.855c-5.534 0-10.037 4.503-10.037 10.037v3.084l-3.446 2.526c-15.09 11.06-26.465 26.221-33.032 43.327-3.628.526-6.415 3.648-6.415 7.422v6.838h-15.174c-5.643 0-10.232 4.59-10.232 10.232v20.182h-3.605c-4.143 0-7.5 3.357-7.5 7.5s3.357 7.5 7.5 7.5h3.604v20.181c0 5.643 4.59 10.232 10.232 10.232h15.174v6.838c0 3.774 2.787 6.896 6.415 7.422 6.567 17.106 17.942 32.267 33.032 43.327l3.446 2.526v74.014h-8.133c-4.143 0-7.5 3.357-7.5 7.5s3.357 7.5 7.5 7.5h67.157c4.143 0 7.5-3.357 7.5-7.5s-3.357-7.5-7.5-7.5h-8.133v-25.854c0-5.534-4.503-10.037-10.037-10.037h-.176v-25h.176c5.328 0 9.7-4.174 10.018-9.424h305.175c.318 5.25 4.69 9.424 10.018 9.424h.176v25h-.176c-5.534 0-10.037 4.503-10.037 10.037v25.854h-8.131c-4.143 0-7.5 3.357-7.5 7.5s3.357 7.5 7.5 7.5h67.157c4.143 0 7.5-3.357 7.5-7.5s-3.357-7.5-7.5-7.5h-8.133v-70.315h2.344c12.865 0 23.332-10.467 23.332-23.332v-156.786c0-12.865-10.467-23.332-23.332-23.332zm-328.212-94.969h12.367v19.959h-12.367zm12.367-34.959v19.959h-12.367v-19.959zm70.16 268.073h-34.03c-4.143 0-7.5 3.357-7.5 7.5s3.357 7.5 7.5 7.5h226.479v10.306h-305.136v-10.306h43.657c4.143 0 7.5-3.357 7.5-7.5s-3.357-7.5-7.5-7.5h-43.657v-91.145h112.688v91.145zm192.45-123.145v123.145h-65.034v-123.145zm-80.035 123.145h-65.034v-123.145h65.034zm-225.102 40.305h65.034v10h-65.034zm80.034 0h65.034v10h-65.034zm80.034 0h65.034v10h-65.034zm80.034 0h65.034v10h-65.034zm-95.034-163.45v123.145h-17.381v-123.145zm-145.068-43.328h112.688v60.328h-112.688zm-104.192 152.967v-45.827h10.406v45.827zm25.407-5.232v-35.364c0-23.536 10.315-46.001 27.894-61.376v13.104c0 4.143 3.357 7.5 7.5 7.5s7.5-3.357 7.5-7.5c0-9.795 0-16.649 0-30.194h20.892v192.297h-20.893c0-30.324 0-96.792 0-127.103 0-4.143-3.357-7.5-7.5-7.5s-7.5 3.357-7.5 7.5v110.011c-17.578-15.374-27.893-37.838-27.893-61.375zm42.893 154.359v-20.892h20.892v20.892zm10.679-35.892h-10.679v-25h10.679zm355.563-25h10.679v25h-10.679zm-10.213 60.892v-20.892h20.892v20.892zm46.567-93.648c0 4.595-3.737 8.332-8.332 8.332h-2.344v-60.878c0-4.143-3.357-7.5-7.5-7.5s-7.5 3.357-7.5 7.5v70.302h-20.892v-192.297h20.892v86.995c0 4.143 3.357 7.5 7.5 7.5s7.5-3.357 7.5-7.5v-77.572h2.344c4.595 0 8.332 3.737 8.332 8.332z"/><path d="m174.329 284.153h49.621c4.98 0 9.033-4.053 9.033-9.033v-25.005c0-4.981-4.053-9.034-9.033-9.034h-49.621c-4.98 0-9.033 4.053-9.033 9.034v25.005c0 4.981 4.053 9.033 9.033 9.033zm5.967-28.072h37.688v13.072h-37.688z"/><path d="m196.429 294.153h-19.739c-4.143 0-7.5 3.357-7.5 7.5s3.357 7.5 7.5 7.5h19.738c4.143 0 7.5-3.357 7.5-7.5s-3.357-7.5-7.499-7.5z"/><path d="m147.796 284.153c4.143 0 7.5-3.357 7.5-7.5v-28.072c0-4.143-3.357-7.5-7.5-7.5s-7.5 3.357-7.5 7.5v28.072c0 4.143 3.357 7.5 7.5 7.5z"/><path d="m174.489 206.081h24.301c4.98 0 9.033-4.053 9.033-9.033v-22.262c0-4.981-4.053-9.034-9.033-9.034h-24.301c-4.98 0-9.033 4.053-9.033 9.034v22.262c0 4.98 4.053 9.033 9.033 9.033zm5.967-25.329h12.367v10.329h-12.367z"/><circle cx="147.796" cy="173.252" r="7.5"/><circle cx="225.483" cy="183.252" r="7.5"/><circle cx="147.796" cy="198.581" r="7.5"/></g></svg>