<svg id="Capa_1" enable-background="new 0 0 512 512" height="512" viewBox="0 0 512 512" width="512" xmlns="http://www.w3.org/2000/svg"><g><path d="m480.271 511.999c-9.194 0-17.177-4.639-22.516-7.741-5.639-3.276-10.508-6.105-16.185-6.105-8.611 0-12.319 1.538-17.451 3.668-6.398 2.654-14.36 5.958-28.947 5.958-14.586 0-22.547-3.303-28.944-5.958-5.131-2.129-8.837-3.667-17.447-3.667s-12.316 1.538-17.447 3.667c-6.397 2.654-14.359 5.958-28.945 5.958s-22.547-3.304-28.944-5.958c-5.13-2.129-8.837-3.667-17.446-3.667s-12.316 1.538-17.446 3.667c-6.397 2.654-14.358 5.958-28.944 5.958s-22.548-3.304-28.945-5.958c-5.131-2.129-8.837-3.667-17.447-3.667s-12.316 1.538-17.447 3.667c-6.397 2.655-14.358 5.958-28.944 5.958-14.587 0-22.549-3.303-28.947-5.958-5.132-2.129-8.84-3.668-17.451-3.668-5.677 0-10.546 2.829-16.185 6.105-9.27 5.386-26.525 15.413-44.221-2.282-17.694-17.692-7.669-34.948-2.283-44.218 3.275-5.639 6.105-10.509 6.105-16.185 0-8.61-1.538-12.317-3.667-17.447-2.654-6.397-5.958-14.359-5.958-28.946 0-14.586 3.304-22.547 5.958-28.945 2.129-5.131 3.667-8.838 3.667-17.447 0-8.61-1.538-12.317-3.667-17.447-2.654-6.397-5.958-14.359-5.958-28.946 0-14.586 3.304-22.547 5.958-28.945 2.129-5.13 3.667-8.837 3.667-17.446s-1.538-12.316-3.667-17.446c-2.654-6.397-5.958-14.358-5.958-28.945s3.304-22.549 5.958-28.946c2.129-5.13 3.667-8.838 3.667-17.447s-1.538-12.316-3.667-17.447c-2.654-6.397-5.958-14.359-5.958-28.946 0-14.588 3.304-22.55 5.958-28.948 2.129-5.131 3.667-8.839 3.667-17.451 0-5.677-2.829-10.548-6.106-16.187-5.385-9.27-15.41-26.526 2.282-44.22 17.695-17.691 34.95-7.666 44.22-2.281 5.639 3.276 10.508 6.105 16.184 6.105 8.61 0 12.316-1.538 17.447-3.667 6.397-2.655 14.358-5.958 28.944-5.958s22.547 3.304 28.944 5.958c5.13 2.129 8.837 3.667 17.446 3.667 8.61 0 12.317-1.538 17.448-3.667 6.398-2.655 14.359-5.958 28.945-5.958 14.585 0 22.546 3.304 28.943 5.958 5.13 2.129 8.837 3.667 17.446 3.667h.027c8.609 0 12.316-1.538 17.446-3.667 6.397-2.654 14.358-5.958 28.943-5.958 14.586 0 22.547 3.303 28.945 5.958 5.131 2.129 8.838 3.667 17.448 3.667 8.609 0 12.316-1.538 17.446-3.667 6.397-2.654 14.358-5.958 28.944-5.958s22.547 3.303 28.944 5.958c5.131 2.129 8.837 3.667 17.447 3.667 5.676 0 10.545-2.829 16.184-6.105 9.271-5.385 26.526-15.411 44.218 2.284s7.667 34.95 2.282 44.22c-3.276 5.639-6.106 10.51-6.106 16.187 0 8.612 1.538 12.319 3.667 17.451 2.654 6.398 5.958 14.36 5.958 28.948 0 14.587-3.304 22.548-5.958 28.946-2.129 5.131-3.667 8.838-3.667 17.447 0 8.61 1.538 12.317 3.667 17.447 2.654 6.397 5.958 14.359 5.958 28.946s-3.304 22.548-5.958 28.945c-2.129 5.13-3.667 8.837-3.667 17.446s1.538 12.316 3.667 17.446c2.654 6.397 5.958 14.358 5.958 28.945s-3.304 22.548-5.958 28.946c-2.129 5.13-3.667 8.838-3.667 17.447s1.538 12.316 3.667 17.447c2.654 6.397 5.958 14.358 5.958 28.945s-3.304 22.548-5.958 28.946c-2.129 5.13-3.667 8.838-3.667 17.447 0 5.676 2.829 10.546 6.105 16.185 5.386 9.27 15.411 26.526-2.283 44.218-7.506 7.502-14.935 10.02-21.706 10.02z" fill="#f3e5cb"/><g fill="#e7c994"><path d="m501.978 10.024c-17.692-17.694-34.947-7.669-44.218-2.284-5.639 3.276-10.508 6.105-16.184 6.105-8.61 0-12.316-1.538-17.447-3.667-6.397-2.655-14.358-5.958-28.944-5.958s-22.547 3.304-28.944 5.958c-5.13 2.129-8.837 3.667-17.446 3.667-8.61 0-12.317-1.538-17.448-3.667-6.398-2.655-14.359-5.958-28.945-5.958-14.585 0-22.546 3.304-28.943 5.958-5.13 2.129-8.837 3.667-17.446 3.667-.005 0-.009 0-.014 0v484.308c8.609 0 12.316 1.538 17.446 3.667 6.397 2.654 14.358 5.958 28.944 5.958s22.548-3.304 28.945-5.958c5.131-2.129 8.837-3.667 17.447-3.667s12.316 1.538 17.447 3.667c6.397 2.655 14.358 5.958 28.944 5.958 14.587 0 22.549-3.303 28.947-5.958 5.132-2.129 8.84-3.668 17.451-3.668 5.677 0 10.546 2.829 16.185 6.105 5.339 3.102 13.323 7.741 22.516 7.741 6.771-.001 14.2-2.519 21.705-10.023 17.694-17.692 7.669-34.948 2.283-44.218-3.275-5.639-6.105-10.509-6.105-16.185 0-8.61 1.538-12.317 3.667-17.447 2.654-6.397 5.958-14.359 5.958-28.946 0-14.586-3.304-22.547-5.958-28.945-2.129-5.131-3.667-8.838-3.667-17.447 0-8.61 1.538-12.317 3.667-17.447 2.654-6.397 5.958-14.359 5.958-28.946 0-14.586-3.304-22.547-5.958-28.945-2.129-5.13-3.667-8.837-3.667-17.446s1.538-12.316 3.667-17.446c2.654-6.397 5.958-14.358 5.958-28.945s-3.304-22.549-5.958-28.946c-2.129-5.13-3.667-8.838-3.667-17.447s1.538-12.316 3.667-17.447c2.654-6.397 5.958-14.359 5.958-28.946 0-14.588-3.304-22.55-5.958-28.948-2.129-5.131-3.667-8.839-3.667-17.451 0-5.677 2.829-10.548 6.106-16.187 5.385-9.266 15.41-26.521-2.282-44.216z"/><g><path d="m91 323.493c-8.284 0-15-6.716-15-15v-20c0-8.284 6.716-15 15-15s15 6.716 15 15v20c0 8.284-6.716 15-15 15z"/><path d="m91 128.493c-8.284 0-15-6.716-15-15v-20c0-8.284 6.716-15 15-15s15 6.716 15 15v20c0 8.284-6.716 15-15 15z"/><path d="m91 243.493c-8.284 0-15-6.716-15-15v-55c0-8.284 6.716-15 15-15s15 6.716 15 15v55c0 8.284-6.716 15-15 15z"/><path d="m91 433.493c-8.284 0-15-6.716-15-15v-50c0-8.284 6.716-15 15-15s15 6.716 15 15v50c0 8.284-6.716 15-15 15z"/></g><g><path d="m157 238.493c-8.284 0-15-6.716-15-15v-20c0-8.284 6.716-15 15-15s15 6.716 15 15v20c0 8.284-6.716 15-15 15z"/><path d="m157 433.493c-8.284 0-15-6.716-15-15v-20c0-8.284 6.716-15 15-15s15 6.716 15 15v20c0 8.284-6.716 15-15 15z"/><path d="m157 353.493c-8.284 0-15-6.716-15-15v-55c0-8.284 6.716-15 15-15s15 6.716 15 15v55c0 8.284-6.716 15-15 15z"/><path d="m157 158.493c-8.284 0-15-6.716-15-15v-50c0-8.284 6.716-15 15-15s15 6.716 15 15v50c0 8.284-6.716 15-15 15z"/></g><g><path d="m223 323.493c-8.284 0-15-6.716-15-15v-20c0-8.284 6.716-15 15-15s15 6.716 15 15v20c0 8.284-6.716 15-15 15z"/><path d="m223 128.493c-8.284 0-15-6.716-15-15v-20c0-8.284 6.716-15 15-15s15 6.716 15 15v20c0 8.284-6.716 15-15 15z"/><path d="m223 243.493c-8.284 0-15-6.716-15-15v-55c0-8.284 6.716-15 15-15s15 6.716 15 15v55c0 8.284-6.716 15-15 15z"/><path d="m223 433.493c-8.284 0-15-6.716-15-15v-50c0-8.284 6.716-15 15-15s15 6.716 15 15v50c0 8.284-6.716 15-15 15z"/></g></g><g fill="#dbad5c"><path d="m355 323.493c-8.284 0-15-6.716-15-15v-20c0-8.284 6.716-15 15-15s15 6.716 15 15v20c0 8.284-6.716 15-15 15z"/><path d="m355 128.493c-8.284 0-15-6.716-15-15v-20c0-8.284 6.716-15 15-15s15 6.716 15 15v20c0 8.284-6.716 15-15 15z"/><path d="m355 243.493c-8.284 0-15-6.716-15-15v-55c0-8.284 6.716-15 15-15s15 6.716 15 15v55c0 8.284-6.716 15-15 15z"/><path d="m355 433.493c-8.284 0-15-6.716-15-15v-50c0-8.284 6.716-15 15-15s15 6.716 15 15v50c0 8.284-6.716 15-15 15z"/></g><g fill="#dbad5c"><path d="m289 238.493c-8.284 0-15-6.716-15-15v-20c0-8.284 6.716-15 15-15s15 6.716 15 15v20c0 8.284-6.716 15-15 15z"/><path d="m289 433.493c-8.284 0-15-6.716-15-15v-20c0-8.284 6.716-15 15-15s15 6.716 15 15v20c0 8.284-6.716 15-15 15z"/><path d="m289 353.493c-8.284 0-15-6.716-15-15v-55c0-8.284 6.716-15 15-15s15 6.716 15 15v55c0 8.284-6.716 15-15 15z"/><path d="m289 158.493c-8.284 0-15-6.716-15-15v-50c0-8.284 6.716-15 15-15s15 6.716 15 15v50c0 8.284-6.716 15-15 15z"/></g><g fill="#dbad5c"><path d="m421 238.493c-8.284 0-15-6.716-15-15v-20c0-8.284 6.716-15 15-15s15 6.716 15 15v20c0 8.284-6.716 15-15 15z"/><path d="m421 433.493c-8.284 0-15-6.716-15-15v-20c0-8.284 6.716-15 15-15s15 6.716 15 15v20c0 8.284-6.716 15-15 15z"/><path d="m421 353.493c-8.284 0-15-6.716-15-15v-55c0-8.284 6.716-15 15-15s15 6.716 15 15v55c0 8.284-6.716 15-15 15z"/><path d="m421 158.493c-8.284 0-15-6.716-15-15v-50c0-8.284 6.716-15 15-15s15 6.716 15 15v50c0 8.284-6.716 15-15 15z"/></g></g></svg>