<svg id="manual-sander" enable-background="new 0 0 300 300" height="512" viewBox="0 0 300 300" width="512" xmlns="http://www.w3.org/2000/svg"><g><circle cx="136" cy="134" fill="#eaeaea" r="92"/><g fill="#4c241d"><circle cx="72" cy="74" r="4"/><circle cx="60" cy="62" r="4"/><circle cx="48" cy="94" r="4"/><circle cx="32" cy="74" r="4"/><circle cx="232" cy="186" r="4"/><circle cx="248" cy="174" r="4"/><circle cx="260" cy="154" r="4"/><circle cx="128" cy="62" r="4"/><circle cx="44" cy="122" r="4"/><circle cx="240" cy="166" r="4"/></g><g><path d="m212 182h-152v-22.911c0-27.111 21.978-49.089 49.089-49.089h53.822c27.111 0 49.089 21.978 49.089 49.089z" fill="#f96e43"/><path d="m212 186h-152c-2.209 0-4-1.791-4-4v-22.91c0-29.274 23.816-53.09 53.09-53.09h53.82c29.273 0 53.09 23.816 53.09 53.09v22.91c0 2.209-1.791 4-4 4zm-148-8h144v-18.91c0-24.863-20.227-45.09-45.09-45.09h-53.82c-24.863 0-45.09 20.227-45.09 45.09z" fill="#4c241d"/></g><g><path d="m268 66s-81.747 23.865-90.523 23.865h-58.338c-11.316 0-22.078 4.922-29.508 13.496l-46.786 53.991c-3.956 4.565-3.765 11.416.441 15.751 4.616 4.759 12.257 4.671 16.764-.192l43.977-47.448c7.07-7.628 16.978-11.961 27.354-11.961h21.643c5.71 0 10.339 4.65 10.339 10.386 0 5.736-4.652 10.112-10.362 10.112h-26.72c-6.859 0-13.106 4.166-16.173 10.329-4.034 8.105 1.833 17.64 10.854 17.64h76.873c13.236 0 25.93-5.281 35.29-14.683l18.875-18.961 16 1.675" fill="#ffe8dc"/><path d="m51.57 180.615c-4.238 0-8.193-1.676-11.156-4.729-5.604-5.775-5.865-15.068-.594-21.154l46.787-53.99c8.193-9.455 20.049-14.877 32.531-14.877h58.338c5.977 0 58.01-14.539 89.402-23.705 2.127-.617 4.342.598 4.961 2.719s-.598 4.342-2.719 4.961c-8.424 2.459-82.557 24.025-91.645 24.025h-58.338c-10.16 0-19.812 4.416-26.484 12.115l-46.787 53.99c-2.578 2.977-2.451 7.521.289 10.346 1.459 1.506 3.34 2.227 5.506 2.299 2.092-.023 4.029-.885 5.455-2.424l43.977-47.447c7.797-8.416 18.836-13.242 30.287-13.242h21.643c7.906 0 14.34 6.453 14.34 14.385 0 7.914-6.309 14.113-14.363 14.113h-26.719c-5.197 0-10.141 3.184-12.592 8.109-1.281 2.572-1.143 5.562.367 8.004 1.518 2.449 4.035 3.855 6.904 3.855h76.873c12.26 0 23.785-4.797 32.455-13.506l18.877-18.961c.852-.855 2.059-1.27 3.25-1.156l16 1.676c2.197.23 3.793 2.197 3.562 4.395-.23 2.199-2.232 3.766-4.395 3.562l-14.098-1.477-17.529 17.605c-10.182 10.229-23.721 15.861-38.123 15.861h-76.873c-5.617 0-10.74-2.857-13.705-7.645-2.98-4.812-3.252-10.711-.729-15.779 3.791-7.621 11.545-12.545 19.754-12.545h26.721c3.568 0 6.363-2.684 6.363-6.111 0-3.521-2.844-6.387-6.34-6.387h-21.643c-9.23 0-18.131 3.893-24.42 10.68l-43.977 47.447c-2.934 3.166-6.922 4.936-11.23 4.984-.06.004-.122.004-.183.004z" fill="#4c241d"/></g><g><path d="m200.509 206h-129.018c-6.346 0-11.491-5.145-11.491-11.491v-12.509h152v12.509c0 6.346-5.145 11.491-11.491 11.491z" fill="#ffce56"/><path d="m200.508 210h-129.016c-8.543 0-15.492-6.949-15.492-15.492v-12.508c0-2.209 1.791-4 4-4h152c2.209 0 4 1.791 4 4v12.508c0 8.543-6.949 15.492-15.492 15.492zm-136.508-24v8.508c0 4.131 3.361 7.492 7.492 7.492h129.016c4.131 0 7.492-3.361 7.492-7.492v-8.508z" fill="#4c241d"/></g><path d="m28 206h244v52h-244z" fill="#bf7e68"/><path d="m272 210h-244c-2.209 0-4-1.791-4-4s1.791-4 4-4h244c2.209 0 4 1.791 4 4s-1.791 4-4 4z" fill="#4c241d"/><path d="m88 230h-36c-2.209 0-4-1.791-4-4s1.791-4 4-4h36c2.209 0 4 1.791 4 4s-1.791 4-4 4z" fill="#4c241d"/><path d="m116 230h-12c-2.209 0-4-1.791-4-4s1.791-4 4-4h12c2.209 0 4 1.791 4 4s-1.791 4-4 4z" fill="#4c241d"/><path d="m112 246h-36c-2.209 0-4-1.791-4-4s1.791-4 4-4h36c2.209 0 4 1.791 4 4s-1.791 4-4 4z" fill="#4c241d"/><path d="m160 246h-32c-2.209 0-4-1.791-4-4s1.791-4 4-4h32c2.209 0 4 1.791 4 4s-1.791 4-4 4z" fill="#4c241d"/><path d="m220 226h-16c-2.209 0-4-1.791-4-4s1.791-4 4-4h16c2.209 0 4 1.791 4 4s-1.791 4-4 4z" fill="#4c241d"/><path d="m244 226h-8c-2.209 0-4-1.791-4-4s1.791-4 4-4h8c2.209 0 4 1.791 4 4s-1.791 4-4 4z" fill="#4c241d"/><path d="m236 238h-16c-2.209 0-4-1.791-4-4s1.791-4 4-4h16c2.209 0 4 1.791 4 4s-1.791 4-4 4z" fill="#4c241d"/><path d="m164 222h-16c-2.209 0-4-1.791-4-4s1.791-4 4-4h16c2.209 0 4 1.791 4 4s-1.791 4-4 4z" fill="#4c241d"/><path d="m172 138h-28c-2.209 0-4-1.791-4-4s1.791-4 4-4h28c2.209 0 4 1.791 4 4s-1.791 4-4 4z" fill="#4c241d"/></g></svg>