<?xml version="1.0" encoding="iso-8859-1"?>
<!-- Generator: Adobe Illustrator 19.0.0, SVG Export Plug-In . SVG Version: 6.00 Build 0)  -->
<svg version="1.1" id="Capa_1" xmlns="http://www.w3.org/2000/svg" xmlns:xlink="http://www.w3.org/1999/xlink" x="0px" y="0px"
	 viewBox="0 0 512 512" style="enable-background:new 0 0 512 512;" xml:space="preserve">
<polygon style="fill:#898890;" points="427.533,288.182 408.941,277.378 349.271,311.828 349.301,322.576 367.893,333.38 
	399.619,315.063 399.619,423.438 418.21,434.242 427.533,428.842 427.536,289.375 "/>
<polygon style="fill:#ACABB1;" points="418.21,434.242 399.619,423.438 399.619,293.524 418.21,304.329 "/>
<polygon style="fill:#C6C5CB;" points="418.21,434.242 399.619,423.438 399.619,293.524 418.21,304.329 "/>
<polygon style="fill:#ACABB1;" points="367.893,333.38 349.301,322.576 349.271,311.829 367.863,322.632 "/>
<polygon style="fill:#C6C5CB;" points="367.863,322.632 349.271,311.829 408.941,277.378 427.533,288.182 "/>
<polygon style="fill:#898890;" points="427.533,288.182 427.536,289.375 427.533,428.842 418.21,434.242 418.21,304.329 
	367.893,333.38 367.863,322.632 "/>
<polygon style="fill:#C6C5CB;" points="185.441,149.983 185.438,148.789 166.847,137.985 107.176,172.435 107.208,183.182 
	125.798,193.986 157.585,175.635 157.525,284.044 176.484,294.848 185.837,289.448 "/>
<polygon style="fill:#ACABB1;" points="176.484,294.848 157.525,284.044 157.525,154.132 176.115,164.936 "/>
<polygon style="fill:#C6C5CB;" points="176.484,294.848 157.525,284.044 157.525,154.132 176.115,164.936 "/>
<polygon style="fill:#ACABB1;" points="125.798,193.986 107.207,183.182 107.176,172.435 125.768,183.24 "/>
<polygon style="fill:#C6C5CB;" points="125.768,183.24 107.176,172.435 166.846,137.985 185.438,148.789 "/>
<g>
	<polygon style="fill:#898890;" points="185.438,148.789 185.441,149.983 185.837,289.448 176.484,294.848 176.115,164.936 
		125.798,193.986 125.768,183.24 	"/>
	<path style="fill:#898890;" d="M166.243,267.567c-1.786-1.031-3.403-1.127-4.571-0.448l-3.996,2.3
		c0.004-0.002,0.008-0.003,0.011-0.005c-1.16,0.668-1.88,2.094-1.885,4.126c-0.012,4.078,2.855,9.043,6.403,11.092
		c1.898,1.095,3.6,1.126,4.779,0.303c-0.069,0.048-0.135,0.102-0.208,0.145l3.996-2.3c1.154-0.67,1.868-2.095,1.874-4.121
		C172.659,274.58,169.793,269.617,166.243,267.567z"/>
</g>
<path style="fill:#ACABB1;" d="M157.676,269.419l3.996-2.3c1.168-0.679,2.786-0.583,4.571,0.448l-3.996,2.3
	C160.462,268.836,158.844,268.74,157.676,269.419z"/>
<path style="fill:#77767E;" d="M170.773,282.781l-3.996,2.3c1.154-0.67,1.868-2.095,1.874-4.121
	c0.011-4.078-2.855-9.043-6.403-11.092l3.996-2.3c3.55,2.049,6.415,7.013,6.403,11.092
	C172.641,280.685,171.926,282.11,170.773,282.781z"/>
<path style="fill:#898890;" d="M162.248,269.867c3.55,2.049,6.415,7.013,6.403,11.092c-0.011,4.078-2.896,5.722-6.445,3.673
	c-3.548-2.049-6.415-7.013-6.403-11.092C155.814,269.462,158.699,267.818,162.248,269.867z"/>
<polygon style="fill:#FEC377;" points="139.068,77.758 0,158.576 0,178.382 372.932,393.623 512,312.806 512,293 "/>
<polygon style="fill:#FFB657;" points="0,158.576 0,178.382 372.932,393.623 372.932,373.816 "/>
<polygon style="fill:#FFA834;" points="512,293 512,312.806 372.932,393.623 372.932,373.816 "/>
<path style="fill:#898890;" d="M407.955,407.369c-1.786-1.031-3.403-1.127-4.571-0.448l-3.996,2.3
	c0.004-0.002,0.008-0.003,0.011-0.005c-1.16,0.668-1.88,2.094-1.885,4.126c-0.011,4.078,2.855,9.043,6.403,11.092
	c1.898,1.095,3.6,1.126,4.779,0.303c-0.069,0.048-0.135,0.102-0.208,0.145l3.996-2.3c1.154-0.67,1.868-2.095,1.874-4.121
	C414.371,414.382,411.505,409.418,407.955,407.369z"/>
<path style="fill:#ACABB1;" d="M399.388,409.221l3.996-2.3c1.168-0.679,2.786-0.583,4.571,0.448l-3.996,2.3
	C402.174,408.638,400.556,408.542,399.388,409.221z"/>
<path style="fill:#77767E;" d="M412.486,422.582l-3.996,2.3c1.154-0.67,1.868-2.095,1.874-4.121
	c0.011-4.078-2.855-9.043-6.403-11.092l3.996-2.3c3.55,2.049,6.415,7.013,6.403,11.092
	C414.353,420.487,413.638,421.912,412.486,422.582z"/>
<g>
	<path style="fill:#898890;" d="M403.96,409.669c3.549,2.049,6.415,7.013,6.403,11.092c-0.011,4.078-2.896,5.722-6.445,3.673
		c-3.55-2.049-6.415-7.013-6.403-11.092C397.526,409.264,400.411,407.62,403.96,409.669z"/>
	<path style="fill:#898890;" d="M407.955,379.917c-1.786-1.031-3.403-1.127-4.571-0.448l-3.996,2.3
		c0.004-0.002,0.008-0.003,0.011-0.005c-1.16,0.668-1.88,2.094-1.885,4.126c-0.011,4.078,2.855,9.043,6.403,11.092
		c1.898,1.095,3.6,1.126,4.779,0.303c-0.069,0.048-0.135,0.102-0.208,0.145l3.996-2.3c1.154-0.67,1.868-2.095,1.874-4.121
		C414.371,386.93,411.505,381.966,407.955,379.917z"/>
</g>
<path style="fill:#ACABB1;" d="M399.388,381.768l3.996-2.3c1.168-0.679,2.786-0.583,4.571,0.448l-3.996,2.3
	C402.174,381.185,400.556,381.089,399.388,381.768z"/>
<path style="fill:#77767E;" d="M412.486,395.129l-3.996,2.3c1.154-0.67,1.868-2.095,1.874-4.121
	c0.011-4.078-2.855-9.043-6.403-11.092l3.996-2.3c3.55,2.049,6.415,7.013,6.403,11.092
	C414.353,393.034,413.638,394.459,412.486,395.129z"/>
<path style="fill:#898890;" d="M403.96,382.216c3.549,2.049,6.415,7.013,6.403,11.092c-0.011,4.078-2.896,5.722-6.445,3.673
	c-3.55-2.049-6.415-7.013-6.403-11.092C397.526,381.811,400.411,380.167,403.96,382.216z"/>
<g>
</g>
<g>
</g>
<g>
</g>
<g>
</g>
<g>
</g>
<g>
</g>
<g>
</g>
<g>
</g>
<g>
</g>
<g>
</g>
<g>
</g>
<g>
</g>
<g>
</g>
<g>
</g>
<g>
</g>
</svg>
